<?xml version="1.0" encoding="UTF-8"?>
<!DOCTYPE X3D PUBLIC "ISO//Web3D//DTD X3D 3.0//EN" "http://www.web3d.org/specifications/x3d-3.0.dtd">
<X3D version="3.0" profile="Immersive" xmlns:xsd="http://www.w3.org/2001/XMLSchema-instance" xsd:noNamespaceSchemaLocation="http://www.web3d.org/specifications/x3d-3.0.xsd">
	<head>
		<meta name="filename" content="mur.x3d" />
		<meta name="generator" content="Blender 4.2.3 LTS" />
	</head>
	<Scene>
		<NavigationInfo headlight="true"
		                visibilityLimit="0.0"
		                type='"EXAMINE", "ANY"'
		                avatarSize="0.25, 1.75, 0.75"
		                />
		<Background DEF="WO_World"
		            groundColor="0.051 0.051 0.051"
		            skyColor="0.051 0.051 0.051"
		            />
		<Transform DEF="Cube_TRANSFORM"
		           translation="0.000000 0.000000 0.000000"
		           scale="-0.618984 -0.162094 -1.000000"
		           rotation="1.000000 0.000000 0.000000 1.570796"
		           >
			<Transform DEF="Cube_ifs_TRANSFORM"
			           translation="0.000000 0.000000 0.000000"
			           scale="1.000000 1.000000 1.000000"
			           rotation="0.000000 1.000000 0.000000 0.000000"
			           >
				<Group DEF="group_ME_Cube">
					<Shape>
						<Appearance>
                			<ImageTexture url="../mur.jpg" />
							<Material DEF="MA_Material"
							          diffuseColor="0.800 0.800 0.800"
							          specularColor="0.401 0.401 0.401"
							          emissiveColor="0.000 0.000 0.000"
							          ambientIntensity="0.000"
							          shininess="0.500"
							          transparency="0.0"
							          />
						</Appearance>
						<IndexedFaceSet solid="false"
						                texCoordIndex="0 1 2 3 -1 4 5 6 7 -1 8 9 10 11 -1 12 13 14 15 -1 16 17 18 19 -1 20 21 22 23 -1 24 25 26 27 -1 28 29 30 31 -1 32 33 34 35 -1 36 37 38 39 -1 40 41 42 43 -1 44 45 46 47 -1 48 49 50 51 -1 52 53 54 55 -1 56 57 58 59 -1 60 61 62 63 -1 64 65 66 67 -1 68 69 70 71 -1 72 73 74 75 -1 76 77 78 79 -1 80 81 82 83 -1 84 85 86 87 -1 88 89 90 91 -1 92 93 94 95 -1 96 97 98 99 -1 100 101 102 103 -1 104 105 106 107 -1 108 109 110 111 -1 112 113 114 115 -1 116 117 118 119 -1 120 121 122 123 -1 124 125 126 127 -1 128 129 130 131 -1 132 133 134 135 -1 136 137 138 139 -1 140 141 142 143 -1 144 145 146 147 -1 148 149 150 151 -1 152 153 154 155 -1 156 157 158 159 -1 160 161 162 163 -1 164 165 166 167 -1 168 169 170 171 -1 172 173 174 175 -1 176 177 178 179 -1 180 181 182 183 -1 184 185 186 187 -1 188 189 190 191 -1 192 193 194 195 -1 196 197 198 199 -1 200 201 202 203 -1 204 205 206 207 -1 208 209 210 211 -1 212 213 214 215 -1 216 217 218 219 -1 220 221 222 223 -1 224 225 226 227 -1 228 229 230 231 -1 232 233 234 235 -1 236 237 238 239 -1 240 241 242 243 -1 244 245 246 247 -1 248 249 250 251 -1 252 253 254 255 -1 256 257 258 259 -1 260 261 262 263 -1 264 265 266 267 -1 268 269 270 271 -1 272 273 274 275 -1 276 277 278 279 -1 280 281 282 283 -1 284 285 286 287 -1 288 289 290 291 -1 292 293 294 295 -1 296 297 298 299 -1 300 301 302 303 -1 304 305 306 307 -1 308 309 310 311 -1 312 313 314 315 -1 316 317 318 319 -1 320 321 322 323 -1 324 325 326 327 -1 328 329 330 331 -1 332 333 334 335 -1 336 337 338 339 -1 340 341 342 343 -1 344 345 346 347 -1 348 349 350 351 -1 352 353 354 355 -1 356 357 358 359 -1 360 361 362 363 -1 364 365 366 367 -1 368 369 370 371 -1 372 373 374 375 -1 376 377 378 379 -1 380 381 382 383 -1 384 385 386 387 -1 388 389 390 391 -1 392 393 394 395 -1 396 397 398 399 -1 400 401 402 403 -1 404 405 406 407 -1 408 409 410 411 -1 412 413 414 415 -1 416 417 418 419 -1 420 421 422 423 -1 424 425 426 427 -1 428 429 430 431 -1 432 433 434 435 -1 436 437 438 439 -1 440 441 442 443 -1 444 445 446 447 -1 448 449 450 451 -1 452 453 454 455 -1 456 457 458 459 -1 460 461 462 463 -1 464 465 466 467 -1 468 469 470 471 -1 472 473 474 475 -1 476 477 478 479 -1 480 481 482 483 -1 484 485 486 487 -1 488 489 490 491 -1 492 493 494 495 -1 496 497 498 499 -1 500 501 502 503 -1 504 505 506 507 -1 508 509 510 511 -1 512 513 514 515 -1 516 517 518 519 -1 520 521 522 523 -1 524 525 526 527 -1 528 529 530 531 -1 532 533 534 535 -1 536 537 538 539 -1 540 541 542 543 -1 544 545 546 547 -1 548 549 550 551 -1 552 553 554 555 -1 556 557 558 559 -1 560 561 562 563 -1 564 565 566 567 -1 568 569 570 571 -1 572 573 574 575 -1 576 577 578 579 -1 580 581 582 583 -1 584 585 586 587 -1 588 589 590 591 -1 592 593 594 595 -1 596 597 598 599 -1 600 601 602 603 -1 604 605 606 607 -1 608 609 610 611 -1 612 613 614 615 -1 616 617 618 619 -1 620 621 622 623 -1 624 625 626 627 -1 628 629 630 631 -1 632 633 634 635 -1 636 637 638 639 -1 640 641 642 643 -1 644 645 646 647 -1 648 649 650 651 -1 652 653 654 655 -1 656 657 658 659 -1 660 661 662 663 -1 664 665 666 667 -1 668 669 670 671 -1 672 673 674 675 -1 676 677 678 679 -1 680 681 682 683 -1 684 685 686 687 -1 688 689 690 691 -1 692 693 694 695 -1 696 697 698 699 -1 700 701 702 703 -1 704 705 706 707 -1 708 709 710 711 -1 712 713 714 715 -1 716 717 718 719 -1 "
						                coordIndex="0 4 6 2 -1 3 2 6 7 -1 7 6 4 5 -1 5 1 3 7 -1 1 0 2 3 -1 5 4 0 1 -1 8 12 14 10 -1 11 10 14 15 -1 15 14 12 13 -1 13 9 11 15 -1 9 8 10 11 -1 13 12 8 9 -1 16 20 22 18 -1 19 18 22 23 -1 23 22 20 21 -1 21 17 19 23 -1 17 16 18 19 -1 21 20 16 17 -1 24 28 30 26 -1 27 26 30 31 -1 31 30 28 29 -1 29 25 27 31 -1 25 24 26 27 -1 29 28 24 25 -1 32 36 38 34 -1 35 34 38 39 -1 39 38 36 37 -1 37 33 35 39 -1 33 32 34 35 -1 37 36 32 33 -1 40 44 46 42 -1 43 42 46 47 -1 47 46 44 45 -1 45 41 43 47 -1 41 40 42 43 -1 45 44 40 41 -1 48 52 54 50 -1 51 50 54 55 -1 55 54 52 53 -1 53 49 51 55 -1 49 48 50 51 -1 53 52 48 49 -1 56 60 62 58 -1 59 58 62 63 -1 63 62 60 61 -1 61 57 59 63 -1 57 56 58 59 -1 61 60 56 57 -1 64 68 70 66 -1 67 66 70 71 -1 71 70 68 69 -1 69 65 67 71 -1 65 64 66 67 -1 69 68 64 65 -1 72 76 78 74 -1 75 74 78 79 -1 79 78 76 77 -1 77 73 75 79 -1 73 72 74 75 -1 77 76 72 73 -1 80 84 86 82 -1 83 82 86 87 -1 87 86 84 85 -1 85 81 83 87 -1 81 80 82 83 -1 85 84 80 81 -1 88 92 94 90 -1 91 90 94 95 -1 95 94 92 93 -1 93 89 91 95 -1 89 88 90 91 -1 93 92 88 89 -1 96 100 102 98 -1 99 98 102 103 -1 103 102 100 101 -1 101 97 99 103 -1 97 96 98 99 -1 101 100 96 97 -1 104 108 110 106 -1 107 106 110 111 -1 111 110 108 109 -1 109 105 107 111 -1 105 104 106 107 -1 109 108 104 105 -1 112 116 118 114 -1 115 114 118 119 -1 119 118 116 117 -1 117 113 115 119 -1 113 112 114 115 -1 117 116 112 113 -1 120 124 126 122 -1 123 122 126 127 -1 127 126 124 125 -1 125 121 123 127 -1 121 120 122 123 -1 125 124 120 121 -1 128 132 134 130 -1 131 130 134 135 -1 135 134 132 133 -1 133 129 131 135 -1 129 128 130 131 -1 133 132 128 129 -1 136 140 142 138 -1 139 138 142 143 -1 143 142 140 141 -1 141 137 139 143 -1 137 136 138 139 -1 141 140 136 137 -1 144 148 150 146 -1 147 146 150 151 -1 151 150 148 149 -1 149 145 147 151 -1 145 144 146 147 -1 149 148 144 145 -1 152 156 158 154 -1 155 154 158 159 -1 159 158 156 157 -1 157 153 155 159 -1 153 152 154 155 -1 157 156 152 153 -1 160 164 166 162 -1 163 162 166 167 -1 167 166 164 165 -1 165 161 163 167 -1 161 160 162 163 -1 165 164 160 161 -1 168 172 174 170 -1 171 170 174 175 -1 175 174 172 173 -1 173 169 171 175 -1 169 168 170 171 -1 173 172 168 169 -1 176 180 182 178 -1 179 178 182 183 -1 183 182 180 181 -1 181 177 179 183 -1 177 176 178 179 -1 181 180 176 177 -1 184 188 190 186 -1 187 186 190 191 -1 191 190 188 189 -1 189 185 187 191 -1 185 184 186 187 -1 189 188 184 185 -1 192 196 198 194 -1 195 194 198 199 -1 199 198 196 197 -1 197 193 195 199 -1 193 192 194 195 -1 197 196 192 193 -1 200 204 206 202 -1 203 202 206 207 -1 207 206 204 205 -1 205 201 203 207 -1 201 200 202 203 -1 205 204 200 201 -1 208 212 214 210 -1 211 210 214 215 -1 215 214 212 213 -1 213 209 211 215 -1 209 208 210 211 -1 213 212 208 209 -1 216 220 222 218 -1 219 218 222 223 -1 223 222 220 221 -1 221 217 219 223 -1 217 216 218 219 -1 221 220 216 217 -1 224 228 230 226 -1 227 226 230 231 -1 231 230 228 229 -1 229 225 227 231 -1 225 224 226 227 -1 229 228 224 225 -1 232 236 238 234 -1 235 234 238 239 -1 239 238 236 237 -1 237 233 235 239 -1 233 232 234 235 -1 237 236 232 233 -1 "
						                >
							<Coordinate DEF="coords_ME_Cube"
							            point="-1.021922 -41.566055 1.000000 -1.021922 -41.566055 -1.000000 -0.973558 -39.574604 1.000000 -0.973558 -39.574604 -1.000000 1.021924 -41.566059 1.000000 1.021924 -41.566059 -1.000000 0.973560 -39.574604 1.000000 0.973560 -39.574604 -1.000000 -3.033302 -40.170673 1.000000 -3.033302 -40.170673 -1.000000 -2.888588 -38.248535 1.000000 -2.888588 -38.248535 -1.000000 -1.021922 -41.566055 1.000000 -1.021922 -41.566055 -1.000000 -0.973558 -39.574604 1.000000 -0.973558 -39.574604 -1.000000 -4.931251 -37.259750 1.000000 -4.931251 -37.259750 -1.000000 -4.694803 -35.475166 1.000000 -4.694803 -35.475166 -1.000000 -3.033302 -40.170673 1.000000 -3.033302 -40.170673 -1.000000 -2.888588 -38.248535 1.000000 -2.888588 -38.248535 -1.000000 -6.672397 -33.161491 1.000000 -6.672397 -33.161491 -1.000000 -6.353053 -31.576288 1.000000 -6.353053 -31.576288 -1.000000 -4.931251 -37.259750 1.000000 -4.931251 -37.259750 -1.000000 -4.694803 -35.475166 1.000000 -4.694803 -35.475166 -1.000000 -8.156517 -27.788954 1.000000 -8.156517 -27.788954 -1.000000 -7.765797 -26.457104 1.000000 -7.765797 -26.457104 -1.000000 -6.672397 -33.161491 1.000000 -6.672397 -33.161491 -1.000000 -6.353053 -31.576288 1.000000 -6.353053 -31.576288 -1.000000 -9.381752 -21.536587 1.000000 -9.381752 -21.536587 -1.000000 -8.933071 -20.504898 1.000000 -8.933071 -20.504898 -1.000000 -8.156517 -27.788954 1.000000 -8.156517 -27.788954 -1.000000 -7.765797 -26.457104 1.000000 -7.765797 -26.457104 -1.000000 -10.256320 -14.479751 1.000000 -10.256320 -14.479751 -1.000000 -9.765032 -13.786673 1.000000 -9.765032 -13.786673 -1.000000 -9.381752 -21.536587 1.000000 -9.381752 -21.536587 -1.000000 -8.933071 -20.504898 1.000000 -8.933071 -20.504898 -1.000000 -10.785940 -6.937414 1.000000 -10.785940 -6.937414 -1.000000 -10.269352 -6.607993 1.000000 -10.269352 -6.607992 -1.000000 -10.256320 -14.479751 1.000000 -10.256320 -14.479751 -1.000000 -9.765032 -13.786673 1.000000 -9.765032 -13.786673 -1.000000 -10.938623 0.844729 1.000000 -10.938622 0.844729 -1.000000 -10.414987 0.804698 1.000000 -10.414987 0.804698 -1.000000 -10.785940 -6.937414 1.000000 -10.785940 -6.937414 -1.000000 -10.269352 -6.607993 1.000000 -10.269352 -6.607992 -1.000000 -10.697264 8.597126 1.000000 -10.697264 8.597126 -1.000000 -10.184617 8.187647 1.000000 -10.184617 8.187647 -1.000000 -10.938623 0.844729 1.000000 -10.938622 0.844729 -1.000000 -10.414987 0.804698 1.000000 -10.414987 0.804698 -1.000000 -10.110314 16.079380 1.000000 -10.110314 16.079380 -1.000000 -9.626847 15.310270 1.000000 -9.626847 15.310270 -1.000000 -10.697264 8.597126 1.000000 -10.697264 8.597126 -1.000000 -10.184617 8.187647 1.000000 -10.184617 8.187647 -1.000000 -9.133761 22.940729 1.000000 -9.133761 22.940729 -1.000000 -8.696382 21.840553 1.000000 -8.696382 21.840553 -1.000000 -10.110314 16.079380 1.000000 -10.110314 16.079380 -1.000000 -9.626847 15.310270 1.000000 -9.626847 15.310270 -1.000000 -7.863284 29.059420 1.000000 -7.863284 29.059420 -1.000000 -7.486944 27.668493 1.000000 -7.486944 27.668493 -1.000000 -9.133761 22.940729 1.000000 -9.133761 22.940729 -1.000000 -8.696382 21.840553 1.000000 -8.696382 21.840553 -1.000000 -6.305132 34.110935 1.000000 -6.305132 34.110935 -1.000000 -6.002847 32.477676 1.000000 -6.002847 32.477676 -1.000000 -7.863284 29.059420 1.000000 -7.863284 29.059420 -1.000000 -7.486944 27.668493 1.000000 -7.486944 27.668493 -1.000000 -4.534728 38.018986 1.000000 -4.534728 38.018986 -1.000000 -4.317489 36.199146 1.000000 -4.317489 36.199146 -1.000000 -6.305132 34.110935 1.000000 -6.305132 34.110935 -1.000000 -6.002847 32.477676 1.000000 -6.002847 32.477676 -1.000000 -2.603269 40.573975 1.000000 -2.603269 40.573975 -1.000000 -2.479188 38.630917 1.000000 -2.479188 38.630917 -1.000000 -4.534728 38.018986 1.000000 -4.534728 38.018986 -1.000000 -4.317489 36.199146 1.000000 -4.317489 36.199146 -1.000000 -0.579523 41.679989 1.000000 -0.579523 41.679989 -1.000000 -0.552070 39.682739 1.000000 -0.552070 39.682739 -1.000000 -2.603269 40.573975 1.000000 -2.603269 40.573975 -1.000000 -2.479188 38.630917 1.000000 -2.479188 38.630917 -1.000000 1.464293 41.450527 1.000000 1.464293 41.450527 -1.000000 1.395095 39.468060 1.000000 1.395095 39.468060 -1.000000 -0.579523 41.679989 1.000000 -0.579523 41.679989 -1.000000 -0.552070 39.682739 1.000000 -0.552070 39.682739 -1.000000 3.452468 39.615967 1.000000 3.452468 39.615967 -1.000000 3.287320 37.717999 1.000000 3.287320 37.717999 -1.000000 1.464293 41.450527 1.000000 1.464293 41.450527 -1.000000 1.395095 39.468060 1.000000 1.395095 39.468060 -1.000000 5.327590 36.499020 1.000000 5.327590 36.499020 -1.000000 5.072323 34.752651 1.000000 5.072323 34.752651 -1.000000 3.452468 39.615967 1.000000 3.452468 39.615967 -1.000000 3.287320 37.717999 1.000000 3.287320 37.717999 -1.000000 7.007470 32.053074 1.000000 7.007470 32.053074 -1.000000 6.671642 30.518341 1.000000 6.671642 30.518341 -1.000000 5.327590 36.499020 1.000000 5.327590 36.499020 -1.000000 5.072323 34.752651 1.000000 5.072323 34.752651 -1.000000 8.449442 26.517370 1.000000 8.449442 26.517370 -1.000000 8.044975 25.246765 1.000000 8.044975 25.246765 -1.000000 7.007470 32.053074 1.000000 7.007470 32.053074 -1.000000 6.671642 30.518341 1.000000 6.671642 30.518341 -1.000000 9.595937 20.056602 1.000000 9.595937 20.056602 -1.000000 9.136652 19.095366 1.000000 9.136652 19.095366 -1.000000 8.449442 26.517370 1.000000 8.449442 26.517370 -1.000000 8.044975 25.246765 1.000000 8.044975 25.246765 -1.000000 10.401917 12.879517 1.000000 10.401916 12.879519 -1.000000 9.903626 12.263627 1.000000 9.903626 12.263628 -1.000000 9.595937 20.056602 1.000000 9.595937 20.056602 -1.000000 9.136652 19.095366 1.000000 9.136652 19.095366 -1.000000 10.860464 5.270423 1.000000 10.860464 5.270425 -1.000000 10.340803 5.021281 1.000000 10.340803 5.021281 -1.000000 10.401917 12.879517 1.000000 10.401916 12.879519 -1.000000 9.903626 12.263627 1.000000 9.903626 12.263628 -1.000000 10.909125 -2.534266 1.000000 10.909125 -2.534266 -1.000000 10.386329 -2.414232 1.000000 10.386329 -2.414231 -1.000000 10.860464 5.270423 1.000000 10.860464 5.270425 -1.000000 10.340803 5.021281 1.000000 10.340803 5.021281 -1.000000 10.608155 -10.256602 1.000000 10.608155 -10.256602 -1.000000 10.100301 -9.767740 1.000000 10.100301 -9.767740 -1.000000 10.909125 -2.534266 1.000000 10.909125 -2.534266 -1.000000 10.386329 -2.414232 1.000000 10.386329 -2.414231 -1.000000 9.918277 -17.604675 1.000000 9.918277 -17.604675 -1.000000 9.443410 -16.761051 1.000000 9.443410 -16.761051 -1.000000 10.608155 -10.256602 1.000000 10.608155 -10.256602 -1.000000 10.100301 -9.767740 1.000000 10.100301 -9.767740 -1.000000 8.885401 -24.344044 1.000000 8.885401 -24.344044 -1.000000 8.460037 -23.177177 1.000000 8.460037 -23.177177 -1.000000 9.918277 -17.604675 1.000000 9.918277 -17.604675 -1.000000 9.443410 -16.761051 1.000000 9.443410 -16.761051 -1.000000 7.546566 -30.240383 1.000000 7.546566 -30.240383 -1.000000 7.185219 -28.792635 1.000000 7.185219 -28.792635 -1.000000 8.885401 -24.344044 1.000000 8.885401 -24.344044 -1.000000 8.460037 -23.177177 1.000000 8.460037 -23.177177 -1.000000 "
							            />
							<TextureCoordinate point="0.6250 0.5000 0.8750 0.5000 0.8750 0.7500 0.6250 0.7500 0.3750 0.7500 0.6250 0.7500 0.6250 1.0000 0.3750 1.0000 0.3750 0.0000 0.6250 0.0000 0.6250 0.2500 0.3750 0.2500 0.1250 0.5000 0.3750 0.5000 0.3750 0.7500 0.1250 0.7500 0.3750 0.5000 0.6250 0.5000 0.6250 0.7500 0.3750 0.7500 0.3750 0.2500 0.6250 0.2500 0.6250 0.5000 0.3750 0.5000 0.6250 0.5000 0.8750 0.5000 0.8750 0.7500 0.6250 0.7500 0.3750 0.7500 0.6250 0.7500 0.6250 1.0000 0.3750 1.0000 0.3750 0.0000 0.6250 0.0000 0.6250 0.2500 0.3750 0.2500 0.1250 0.5000 0.3750 0.5000 0.3750 0.7500 0.1250 0.7500 0.3750 0.5000 0.6250 0.5000 0.6250 0.7500 0.3750 0.7500 0.3750 0.2500 0.6250 0.2500 0.6250 0.5000 0.3750 0.5000 0.6250 0.5000 0.8750 0.5000 0.8750 0.7500 0.6250 0.7500 0.3750 0.7500 0.6250 0.7500 0.6250 1.0000 0.3750 1.0000 0.3750 0.0000 0.6250 0.0000 0.6250 0.2500 0.3750 0.2500 0.1250 0.5000 0.3750 0.5000 0.3750 0.7500 0.1250 0.7500 0.3750 0.5000 0.6250 0.5000 0.6250 0.7500 0.3750 0.7500 0.3750 0.2500 0.6250 0.2500 0.6250 0.5000 0.3750 0.5000 0.6250 0.5000 0.8750 0.5000 0.8750 0.7500 0.6250 0.7500 0.3750 0.7500 0.6250 0.7500 0.6250 1.0000 0.3750 1.0000 0.3750 0.0000 0.6250 0.0000 0.6250 0.2500 0.3750 0.2500 0.1250 0.5000 0.3750 0.5000 0.3750 0.7500 0.1250 0.7500 0.3750 0.5000 0.6250 0.5000 0.6250 0.7500 0.3750 0.7500 0.3750 0.2500 0.6250 0.2500 0.6250 0.5000 0.3750 0.5000 0.6250 0.5000 0.8750 0.5000 0.8750 0.7500 0.6250 0.7500 0.3750 0.7500 0.6250 0.7500 0.6250 1.0000 0.3750 1.0000 0.3750 0.0000 0.6250 0.0000 0.6250 0.2500 0.3750 0.2500 0.1250 0.5000 0.3750 0.5000 0.3750 0.7500 0.1250 0.7500 0.3750 0.5000 0.6250 0.5000 0.6250 0.7500 0.3750 0.7500 0.3750 0.2500 0.6250 0.2500 0.6250 0.5000 0.3750 0.5000 0.6250 0.5000 0.8750 0.5000 0.8750 0.7500 0.6250 0.7500 0.3750 0.7500 0.6250 0.7500 0.6250 1.0000 0.3750 1.0000 0.3750 0.0000 0.6250 0.0000 0.6250 0.2500 0.3750 0.2500 0.1250 0.5000 0.3750 0.5000 0.3750 0.7500 0.1250 0.7500 0.3750 0.5000 0.6250 0.5000 0.6250 0.7500 0.3750 0.7500 0.3750 0.2500 0.6250 0.2500 0.6250 0.5000 0.3750 0.5000 0.6250 0.5000 0.8750 0.5000 0.8750 0.7500 0.6250 0.7500 0.3750 0.7500 0.6250 0.7500 0.6250 1.0000 0.3750 1.0000 0.3750 0.0000 0.6250 0.0000 0.6250 0.2500 0.3750 0.2500 0.1250 0.5000 0.3750 0.5000 0.3750 0.7500 0.1250 0.7500 0.3750 0.5000 0.6250 0.5000 0.6250 0.7500 0.3750 0.7500 0.3750 0.2500 0.6250 0.2500 0.6250 0.5000 0.3750 0.5000 0.6250 0.5000 0.8750 0.5000 0.8750 0.7500 0.6250 0.7500 0.3750 0.7500 0.6250 0.7500 0.6250 1.0000 0.3750 1.0000 0.3750 0.0000 0.6250 0.0000 0.6250 0.2500 0.3750 0.2500 0.1250 0.5000 0.3750 0.5000 0.3750 0.7500 0.1250 0.7500 0.3750 0.5000 0.6250 0.5000 0.6250 0.7500 0.3750 0.7500 0.3750 0.2500 0.6250 0.2500 0.6250 0.5000 0.3750 0.5000 0.6250 0.5000 0.8750 0.5000 0.8750 0.7500 0.6250 0.7500 0.3750 0.7500 0.6250 0.7500 0.6250 1.0000 0.3750 1.0000 0.3750 0.0000 0.6250 0.0000 0.6250 0.2500 0.3750 0.2500 0.1250 0.5000 0.3750 0.5000 0.3750 0.7500 0.1250 0.7500 0.3750 0.5000 0.6250 0.5000 0.6250 0.7500 0.3750 0.7500 0.3750 0.2500 0.6250 0.2500 0.6250 0.5000 0.3750 0.5000 0.6250 0.5000 0.8750 0.5000 0.8750 0.7500 0.6250 0.7500 0.3750 0.7500 0.6250 0.7500 0.6250 1.0000 0.3750 1.0000 0.3750 0.0000 0.6250 0.0000 0.6250 0.2500 0.3750 0.2500 0.1250 0.5000 0.3750 0.5000 0.3750 0.7500 0.1250 0.7500 0.3750 0.5000 0.6250 0.5000 0.6250 0.7500 0.3750 0.7500 0.3750 0.2500 0.6250 0.2500 0.6250 0.5000 0.3750 0.5000 0.6250 0.5000 0.8750 0.5000 0.8750 0.7500 0.6250 0.7500 0.3750 0.7500 0.6250 0.7500 0.6250 1.0000 0.3750 1.0000 0.3750 0.0000 0.6250 0.0000 0.6250 0.2500 0.3750 0.2500 0.1250 0.5000 0.3750 0.5000 0.3750 0.7500 0.1250 0.7500 0.3750 0.5000 0.6250 0.5000 0.6250 0.7500 0.3750 0.7500 0.3750 0.2500 0.6250 0.2500 0.6250 0.5000 0.3750 0.5000 0.6250 0.5000 0.8750 0.5000 0.8750 0.7500 0.6250 0.7500 0.3750 0.7500 0.6250 0.7500 0.6250 1.0000 0.3750 1.0000 0.3750 0.0000 0.6250 0.0000 0.6250 0.2500 0.3750 0.2500 0.1250 0.5000 0.3750 0.5000 0.3750 0.7500 0.1250 0.7500 0.3750 0.5000 0.6250 0.5000 0.6250 0.7500 0.3750 0.7500 0.3750 0.2500 0.6250 0.2500 0.6250 0.5000 0.3750 0.5000 0.6250 0.5000 0.8750 0.5000 0.8750 0.7500 0.6250 0.7500 0.3750 0.7500 0.6250 0.7500 0.6250 1.0000 0.3750 1.0000 0.3750 0.0000 0.6250 0.0000 0.6250 0.2500 0.3750 0.2500 0.1250 0.5000 0.3750 0.5000 0.3750 0.7500 0.1250 0.7500 0.3750 0.5000 0.6250 0.5000 0.6250 0.7500 0.3750 0.7500 0.3750 0.2500 0.6250 0.2500 0.6250 0.5000 0.3750 0.5000 0.6250 0.5000 0.8750 0.5000 0.8750 0.7500 0.6250 0.7500 0.3750 0.7500 0.6250 0.7500 0.6250 1.0000 0.3750 1.0000 0.3750 0.0000 0.6250 0.0000 0.6250 0.2500 0.3750 0.2500 0.1250 0.5000 0.3750 0.5000 0.3750 0.7500 0.1250 0.7500 0.3750 0.5000 0.6250 0.5000 0.6250 0.7500 0.3750 0.7500 0.3750 0.2500 0.6250 0.2500 0.6250 0.5000 0.3750 0.5000 0.6250 0.5000 0.8750 0.5000 0.8750 0.7500 0.6250 0.7500 0.3750 0.7500 0.6250 0.7500 0.6250 1.0000 0.3750 1.0000 0.3750 0.0000 0.6250 0.0000 0.6250 0.2500 0.3750 0.2500 0.1250 0.5000 0.3750 0.5000 0.3750 0.7500 0.1250 0.7500 0.3750 0.5000 0.6250 0.5000 0.6250 0.7500 0.3750 0.7500 0.3750 0.2500 0.6250 0.2500 0.6250 0.5000 0.3750 0.5000 0.6250 0.5000 0.8750 0.5000 0.8750 0.7500 0.6250 0.7500 0.3750 0.7500 0.6250 0.7500 0.6250 1.0000 0.3750 1.0000 0.3750 0.0000 0.6250 0.0000 0.6250 0.2500 0.3750 0.2500 0.1250 0.5000 0.3750 0.5000 0.3750 0.7500 0.1250 0.7500 0.3750 0.5000 0.6250 0.5000 0.6250 0.7500 0.3750 0.7500 0.3750 0.2500 0.6250 0.2500 0.6250 0.5000 0.3750 0.5000 0.6250 0.5000 0.8750 0.5000 0.8750 0.7500 0.6250 0.7500 0.3750 0.7500 0.6250 0.7500 0.6250 1.0000 0.3750 1.0000 0.3750 0.0000 0.6250 0.0000 0.6250 0.2500 0.3750 0.2500 0.1250 0.5000 0.3750 0.5000 0.3750 0.7500 0.1250 0.7500 0.3750 0.5000 0.6250 0.5000 0.6250 0.7500 0.3750 0.7500 0.3750 0.2500 0.6250 0.2500 0.6250 0.5000 0.3750 0.5000 0.6250 0.5000 0.8750 0.5000 0.8750 0.7500 0.6250 0.7500 0.3750 0.7500 0.6250 0.7500 0.6250 1.0000 0.3750 1.0000 0.3750 0.0000 0.6250 0.0000 0.6250 0.2500 0.3750 0.2500 0.1250 0.5000 0.3750 0.5000 0.3750 0.7500 0.1250 0.7500 0.3750 0.5000 0.6250 0.5000 0.6250 0.7500 0.3750 0.7500 0.3750 0.2500 0.6250 0.2500 0.6250 0.5000 0.3750 0.5000 0.6250 0.5000 0.8750 0.5000 0.8750 0.7500 0.6250 0.7500 0.3750 0.7500 0.6250 0.7500 0.6250 1.0000 0.3750 1.0000 0.3750 0.0000 0.6250 0.0000 0.6250 0.2500 0.3750 0.2500 0.1250 0.5000 0.3750 0.5000 0.3750 0.7500 0.1250 0.7500 0.3750 0.5000 0.6250 0.5000 0.6250 0.7500 0.3750 0.7500 0.3750 0.2500 0.6250 0.2500 0.6250 0.5000 0.3750 0.5000 0.6250 0.5000 0.8750 0.5000 0.8750 0.7500 0.6250 0.7500 0.3750 0.7500 0.6250 0.7500 0.6250 1.0000 0.3750 1.0000 0.3750 0.0000 0.6250 0.0000 0.6250 0.2500 0.3750 0.2500 0.1250 0.5000 0.3750 0.5000 0.3750 0.7500 0.1250 0.7500 0.3750 0.5000 0.6250 0.5000 0.6250 0.7500 0.3750 0.7500 0.3750 0.2500 0.6250 0.2500 0.6250 0.5000 0.3750 0.5000 0.6250 0.5000 0.8750 0.5000 0.8750 0.7500 0.6250 0.7500 0.3750 0.7500 0.6250 0.7500 0.6250 1.0000 0.3750 1.0000 0.3750 0.0000 0.6250 0.0000 0.6250 0.2500 0.3750 0.2500 0.1250 0.5000 0.3750 0.5000 0.3750 0.7500 0.1250 0.7500 0.3750 0.5000 0.6250 0.5000 0.6250 0.7500 0.3750 0.7500 0.3750 0.2500 0.6250 0.2500 0.6250 0.5000 0.3750 0.5000 0.6250 0.5000 0.8750 0.5000 0.8750 0.7500 0.6250 0.7500 0.3750 0.7500 0.6250 0.7500 0.6250 1.0000 0.3750 1.0000 0.3750 0.0000 0.6250 0.0000 0.6250 0.2500 0.3750 0.2500 0.1250 0.5000 0.3750 0.5000 0.3750 0.7500 0.1250 0.7500 0.3750 0.5000 0.6250 0.5000 0.6250 0.7500 0.3750 0.7500 0.3750 0.2500 0.6250 0.2500 0.6250 0.5000 0.3750 0.5000 0.6250 0.5000 0.8750 0.5000 0.8750 0.7500 0.6250 0.7500 0.3750 0.7500 0.6250 0.7500 0.6250 1.0000 0.3750 1.0000 0.3750 0.0000 0.6250 0.0000 0.6250 0.2500 0.3750 0.2500 0.1250 0.5000 0.3750 0.5000 0.3750 0.7500 0.1250 0.7500 0.3750 0.5000 0.6250 0.5000 0.6250 0.7500 0.3750 0.7500 0.3750 0.2500 0.6250 0.2500 0.6250 0.5000 0.3750 0.5000 0.6250 0.5000 0.8750 0.5000 0.8750 0.7500 0.6250 0.7500 0.3750 0.7500 0.6250 0.7500 0.6250 1.0000 0.3750 1.0000 0.3750 0.0000 0.6250 0.0000 0.6250 0.2500 0.3750 0.2500 0.1250 0.5000 0.3750 0.5000 0.3750 0.7500 0.1250 0.7500 0.3750 0.5000 0.6250 0.5000 0.6250 0.7500 0.3750 0.7500 0.3750 0.2500 0.6250 0.2500 0.6250 0.5000 0.3750 0.5000 0.6250 0.5000 0.8750 0.5000 0.8750 0.7500 0.6250 0.7500 0.3750 0.7500 0.6250 0.7500 0.6250 1.0000 0.3750 1.0000 0.3750 0.0000 0.6250 0.0000 0.6250 0.2500 0.3750 0.2500 0.1250 0.5000 0.3750 0.5000 0.3750 0.7500 0.1250 0.7500 0.3750 0.5000 0.6250 0.5000 0.6250 0.7500 0.3750 0.7500 0.3750 0.2500 0.6250 0.2500 0.6250 0.5000 0.3750 0.5000 0.6250 0.5000 0.8750 0.5000 0.8750 0.7500 0.6250 0.7500 0.3750 0.7500 0.6250 0.7500 0.6250 1.0000 0.3750 1.0000 0.3750 0.0000 0.6250 0.0000 0.6250 0.2500 0.3750 0.2500 0.1250 0.5000 0.3750 0.5000 0.3750 0.7500 0.1250 0.7500 0.3750 0.5000 0.6250 0.5000 0.6250 0.7500 0.3750 0.7500 0.3750 0.2500 0.6250 0.2500 0.6250 0.5000 0.3750 0.5000 0.6250 0.5000 0.8750 0.5000 0.8750 0.7500 0.6250 0.7500 0.3750 0.7500 0.6250 0.7500 0.6250 1.0000 0.3750 1.0000 0.3750 0.0000 0.6250 0.0000 0.6250 0.2500 0.3750 0.2500 0.1250 0.5000 0.3750 0.5000 0.3750 0.7500 0.1250 0.7500 0.3750 0.5000 0.6250 0.5000 0.6250 0.7500 0.3750 0.7500 0.3750 0.2500 0.6250 0.2500 0.6250 0.5000 0.3750 0.5000 0.6250 0.5000 0.8750 0.5000 0.8750 0.7500 0.6250 0.7500 0.3750 0.7500 0.6250 0.7500 0.6250 1.0000 0.3750 1.0000 0.3750 0.0000 0.6250 0.0000 0.6250 0.2500 0.3750 0.2500 0.1250 0.5000 0.3750 0.5000 0.3750 0.7500 0.1250 0.7500 0.3750 0.5000 0.6250 0.5000 0.6250 0.7500 0.3750 0.7500 0.3750 0.2500 0.6250 0.2500 0.6250 0.5000 0.3750 0.5000 0.6250 0.5000 0.8750 0.5000 0.8750 0.7500 0.6250 0.7500 0.3750 0.7500 0.6250 0.7500 0.6250 1.0000 0.3750 1.0000 0.3750 0.0000 0.6250 0.0000 0.6250 0.2500 0.3750 0.2500 0.1250 0.5000 0.3750 0.5000 0.3750 0.7500 0.1250 0.7500 0.3750 0.5000 0.6250 0.5000 0.6250 0.7500 0.3750 0.7500 0.3750 0.2500 0.6250 0.2500 0.6250 0.5000 0.3750 0.5000 0.6250 0.5000 0.8750 0.5000 0.8750 0.7500 0.6250 0.7500 0.3750 0.7500 0.6250 0.7500 0.6250 1.0000 0.3750 1.0000 0.3750 0.0000 0.6250 0.0000 0.6250 0.2500 0.3750 0.2500 0.1250 0.5000 0.3750 0.5000 0.3750 0.7500 0.1250 0.7500 0.3750 0.5000 0.6250 0.5000 0.6250 0.7500 0.3750 0.7500 0.3750 0.2500 0.6250 0.2500 0.6250 0.5000 0.3750 0.5000 " />
						</IndexedFaceSet>
					</Shape>
				</Group>
			</Transform>
		</Transform>
		<Transform DEF="BézierCircle_TRANSFORM"
		           translation="0.000000 0.000000 0.000000"
		           scale="6.617775 6.617775 6.617775"
		           rotation="-1.000000 0.000000 0.000000 1.570796"
		           >
			<Transform DEF="BézierCircle_ifs_TRANSFORM"
			           translation="0.000000 0.000000 0.000000"
			           scale="1.000000 1.000000 1.000000"
			           rotation="0.000000 1.000000 0.000000 0.000000"
			           >
				<Group DEF="group_ME_BézierCircle">
				</Group>
			</Transform>
		</Transform>
	</Scene>
</X3D>