<?xml version="1.0" encoding="UTF-8"?>
<!DOCTYPE X3D PUBLIC "ISO//Web3D//DTD X3D 3.0//EN" "http://www.web3d.org/specifications/x3d-3.0.dtd">
<X3D version="3.0" profile="Immersive" xmlns:xsd="http://www.w3.org/2001/XMLSchema-instance" xsd:noNamespaceSchemaLocation="http://www.web3d.org/specifications/x3d-3.0.xsd">
	<head>
		<meta name="filename" content="way.x3d" />
		<meta name="generator" content="Blender 4.2.3 LTS" />
	</head>
	<Scene>
		<NavigationInfo headlight="true"
		                visibilityLimit="0.0"
		                type='"EXAMINE", "ANY"'
		                avatarSize="0.25, 1.75, 0.75"
		                />
		<Background DEF="WO_World"
		            groundColor="0.051 0.051 0.051"
		            skyColor="0.051 0.051 0.051"
		            />
		<Transform DEF="Cube_TRANSFORM"
		           translation="-2.002453 0.774763 3.578610"
		           scale="-0.857120 -1.276473 -0.013602"
		           rotation="-0.000000 0.707107 0.707107 3.141593"
		           >
			<Transform DEF="Cube_ifs_TRANSFORM"
			           translation="0.000000 0.000000 -0.000004"
			           scale="1.000000 1.000000 1.000000"
			           rotation="0.000000 1.000000 0.000000 0.000000"
			           >
				<Group DEF="group_ME_Cube">
					<Shape>
						<Appearance>
							<ImageTexture url="../way.jpg" />
							<Material DEF="MA_Material"
							          diffuseColor="0.988, 0.655, 0.078"
							          specularColor="0.401 0.401 0.401"
							          emissiveColor="0.000 0.000 0.000"
							          ambientIntensity="0.000"
							          shininess="0.500"
							          transparency="0.0"
							          />
						</Appearance>
						<IndexedFaceSet solid="false"
						                texCoordIndex="0 1 2 3 -1 4 5 6 7 -1 8 9 10 11 -1 12 13 14 15 -1 16 17 18 19 -1 20 21 22 23 -1 24 25 26 27 -1 28 29 30 31 -1 32 33 34 35 -1 36 37 38 39 -1 40 41 42 43 -1 44 45 46 47 -1 48 49 50 51 -1 52 53 54 55 -1 56 57 58 59 -1 60 61 62 63 -1 64 65 66 67 -1 68 69 70 71 -1 72 73 74 75 -1 76 77 78 79 -1 80 81 82 83 -1 84 85 86 87 -1 88 89 90 91 -1 92 93 94 95 -1 96 97 98 99 -1 100 101 102 103 -1 104 105 106 107 -1 108 109 110 111 -1 112 113 114 115 -1 116 117 118 119 -1 120 121 122 123 -1 124 125 126 127 -1 128 129 130 131 -1 132 133 134 135 -1 136 137 138 139 -1 140 141 142 143 -1 144 145 146 147 -1 148 149 150 151 -1 152 153 154 155 -1 156 157 158 159 -1 160 161 162 163 -1 164 165 166 167 -1 168 169 170 171 -1 172 173 174 175 -1 176 177 178 179 -1 180 181 182 183 -1 184 185 186 187 -1 188 189 190 191 -1 192 193 194 195 -1 196 197 198 199 -1 200 201 202 203 -1 204 205 206 207 -1 208 209 210 211 -1 212 213 214 215 -1 216 217 218 219 -1 220 221 222 223 -1 224 225 226 227 -1 228 229 230 231 -1 232 233 234 235 -1 236 237 238 239 -1 240 241 242 243 -1 244 245 246 247 -1 248 249 250 251 -1 252 253 254 255 -1 256 257 258 259 -1 260 261 262 263 -1 264 265 266 267 -1 268 269 270 271 -1 272 273 274 275 -1 276 277 278 279 -1 280 281 282 283 -1 284 285 286 287 -1 288 289 290 291 -1 292 293 294 295 -1 296 297 298 299 -1 300 301 302 303 -1 304 305 306 307 -1 308 309 310 311 -1 312 313 314 315 -1 316 317 318 319 -1 320 321 322 323 -1 324 325 326 327 -1 328 329 330 331 -1 332 333 334 335 -1 336 337 338 339 -1 340 341 342 343 -1 344 345 346 347 -1 348 349 350 351 -1 352 353 354 355 -1 356 357 358 359 -1 360 361 362 363 -1 364 365 366 367 -1 368 369 370 371 -1 372 373 374 375 -1 376 377 378 379 -1 380 381 382 383 -1 384 385 386 387 -1 388 389 390 391 -1 392 393 394 395 -1 396 397 398 399 -1 400 401 402 403 -1 404 405 406 407 -1 408 409 410 411 -1 412 413 414 415 -1 416 417 418 419 -1 420 421 422 423 -1 424 425 426 427 -1 428 429 430 431 -1 432 433 434 435 -1 436 437 438 439 -1 440 441 442 443 -1 444 445 446 447 -1 448 449 450 451 -1 452 453 454 455 -1 456 457 458 459 -1 460 461 462 463 -1 464 465 466 467 -1 468 469 470 471 -1 472 473 474 475 -1 476 477 478 479 -1 480 481 482 483 -1 484 485 486 487 -1 488 489 490 491 -1 492 493 494 495 -1 496 497 498 499 -1 500 501 502 503 -1 504 505 506 507 -1 508 509 510 511 -1 512 513 514 515 -1 516 517 518 519 -1 520 521 522 523 -1 524 525 526 527 -1 528 529 530 531 -1 532 533 534 535 -1 536 537 538 539 -1 540 541 542 543 -1 544 545 546 547 -1 548 549 550 551 -1 552 553 554 555 -1 556 557 558 559 -1 560 561 562 563 -1 564 565 566 567 -1 568 569 570 571 -1 572 573 574 575 -1 576 577 578 579 -1 580 581 582 583 -1 584 585 586 587 -1 588 589 590 591 -1 592 593 594 595 -1 596 597 598 599 -1 600 601 602 603 -1 604 605 606 607 -1 608 609 610 611 -1 612 613 614 615 -1 616 617 618 619 -1 620 621 622 623 -1 624 625 626 627 -1 628 629 630 631 -1 632 633 634 635 -1 636 637 638 639 -1 640 641 642 643 -1 644 645 646 647 -1 648 649 650 651 -1 652 653 654 655 -1 656 657 658 659 -1 660 661 662 663 -1 664 665 666 667 -1 668 669 670 671 -1 672 673 674 675 -1 676 677 678 679 -1 680 681 682 683 -1 684 685 686 687 -1 688 689 690 691 -1 692 693 694 695 -1 696 697 698 699 -1 700 701 702 703 -1 704 705 706 707 -1 708 709 710 711 -1 712 713 714 715 -1 716 717 718 719 -1 720 721 722 723 -1 724 725 726 727 -1 728 729 730 731 -1 732 733 734 735 -1 736 737 738 739 -1 740 741 742 743 -1 744 745 746 747 -1 748 749 750 751 -1 752 753 754 755 -1 756 757 758 759 -1 760 761 762 763 -1 764 765 766 767 -1 768 769 770 771 -1 772 773 774 775 -1 776 777 778 779 -1 780 781 782 783 -1 784 785 786 787 -1 788 789 790 791 -1 792 793 794 795 -1 796 797 798 799 -1 800 801 802 803 -1 804 805 806 807 -1 808 809 810 811 -1 812 813 814 815 -1 816 817 818 819 -1 820 821 822 823 -1 824 825 826 827 -1 828 829 830 831 -1 832 833 834 835 -1 836 837 838 839 -1 "
						                coordIndex="0 4 6 2 -1 3 2 6 7 -1 7 6 4 5 -1 5 1 3 7 -1 1 0 2 3 -1 5 4 0 1 -1 8 12 14 10 -1 11 10 14 15 -1 15 14 12 13 -1 13 9 11 15 -1 9 8 10 11 -1 13 12 8 9 -1 16 20 22 18 -1 19 18 22 23 -1 23 22 20 21 -1 21 17 19 23 -1 17 16 18 19 -1 21 20 16 17 -1 24 28 30 26 -1 27 26 30 31 -1 31 30 28 29 -1 29 25 27 31 -1 25 24 26 27 -1 29 28 24 25 -1 32 36 38 34 -1 35 34 38 39 -1 39 38 36 37 -1 37 33 35 39 -1 33 32 34 35 -1 37 36 32 33 -1 40 44 46 42 -1 43 42 46 47 -1 47 46 44 45 -1 45 41 43 47 -1 41 40 42 43 -1 45 44 40 41 -1 48 52 54 50 -1 51 50 54 55 -1 55 54 52 53 -1 53 49 51 55 -1 49 48 50 51 -1 53 52 48 49 -1 56 60 62 58 -1 59 58 62 63 -1 63 62 60 61 -1 61 57 59 63 -1 57 56 58 59 -1 61 60 56 57 -1 64 68 70 66 -1 67 66 70 71 -1 71 70 68 69 -1 69 65 67 71 -1 65 64 66 67 -1 69 68 64 65 -1 72 76 78 74 -1 75 74 78 79 -1 79 78 76 77 -1 77 73 75 79 -1 73 72 74 75 -1 77 76 72 73 -1 80 84 86 82 -1 83 82 86 87 -1 87 86 84 85 -1 85 81 83 87 -1 81 80 82 83 -1 85 84 80 81 -1 88 92 94 90 -1 91 90 94 95 -1 95 94 92 93 -1 93 89 91 95 -1 89 88 90 91 -1 93 92 88 89 -1 96 100 102 98 -1 99 98 102 103 -1 103 102 100 101 -1 101 97 99 103 -1 97 96 98 99 -1 101 100 96 97 -1 104 108 110 106 -1 107 106 110 111 -1 111 110 108 109 -1 109 105 107 111 -1 105 104 106 107 -1 109 108 104 105 -1 112 116 118 114 -1 115 114 118 119 -1 119 118 116 117 -1 117 113 115 119 -1 113 112 114 115 -1 117 116 112 113 -1 120 124 126 122 -1 123 122 126 127 -1 127 126 124 125 -1 125 121 123 127 -1 121 120 122 123 -1 125 124 120 121 -1 128 132 134 130 -1 131 130 134 135 -1 135 134 132 133 -1 133 129 131 135 -1 129 128 130 131 -1 133 132 128 129 -1 136 140 142 138 -1 139 138 142 143 -1 143 142 140 141 -1 141 137 139 143 -1 137 136 138 139 -1 141 140 136 137 -1 144 148 150 146 -1 147 146 150 151 -1 151 150 148 149 -1 149 145 147 151 -1 145 144 146 147 -1 149 148 144 145 -1 152 156 158 154 -1 155 154 158 159 -1 159 158 156 157 -1 157 153 155 159 -1 153 152 154 155 -1 157 156 152 153 -1 160 164 166 162 -1 163 162 166 167 -1 167 166 164 165 -1 165 161 163 167 -1 161 160 162 163 -1 165 164 160 161 -1 168 172 174 170 -1 171 170 174 175 -1 175 174 172 173 -1 173 169 171 175 -1 169 168 170 171 -1 173 172 168 169 -1 176 180 182 178 -1 179 178 182 183 -1 183 182 180 181 -1 181 177 179 183 -1 177 176 178 179 -1 181 180 176 177 -1 184 188 190 186 -1 187 186 190 191 -1 191 190 188 189 -1 189 185 187 191 -1 185 184 186 187 -1 189 188 184 185 -1 192 196 198 194 -1 195 194 198 199 -1 199 198 196 197 -1 197 193 195 199 -1 193 192 194 195 -1 197 196 192 193 -1 200 204 206 202 -1 203 202 206 207 -1 207 206 204 205 -1 205 201 203 207 -1 201 200 202 203 -1 205 204 200 201 -1 208 212 214 210 -1 211 210 214 215 -1 215 214 212 213 -1 213 209 211 215 -1 209 208 210 211 -1 213 212 208 209 -1 216 220 222 218 -1 219 218 222 223 -1 223 222 220 221 -1 221 217 219 223 -1 217 216 218 219 -1 221 220 216 217 -1 224 228 230 226 -1 227 226 230 231 -1 231 230 228 229 -1 229 225 227 231 -1 225 224 226 227 -1 229 228 224 225 -1 232 236 238 234 -1 235 234 238 239 -1 239 238 236 237 -1 237 233 235 239 -1 233 232 234 235 -1 237 236 232 233 -1 240 244 246 242 -1 243 242 246 247 -1 247 246 244 245 -1 245 241 243 247 -1 241 240 242 243 -1 245 244 240 241 -1 248 252 254 250 -1 251 250 254 255 -1 255 254 252 253 -1 253 249 251 255 -1 249 248 250 251 -1 253 252 248 249 -1 256 260 262 258 -1 259 258 262 263 -1 263 262 260 261 -1 261 257 259 263 -1 257 256 258 259 -1 261 260 256 257 -1 264 268 270 266 -1 267 266 270 271 -1 271 270 268 269 -1 269 265 267 271 -1 265 264 266 267 -1 269 268 264 265 -1 272 276 278 274 -1 275 274 278 279 -1 279 278 276 277 -1 277 273 275 279 -1 273 272 274 275 -1 277 276 272 273 -1 "
						                >
							<Coordinate DEF="coords_ME_Cube"
							            point="-11.066326 1.808160 1.000008 -11.066326 1.808160 -0.999996 -15.403454 0.393947 0.999996 -15.403454 0.393948 -1.000011 -12.598989 2.227126 1.000008 -12.598989 2.227126 -0.999996 -16.936119 0.812913 0.999996 -16.936119 0.812913 -1.000011 -9.163609 1.279000 0.999981 -9.163609 1.279000 -1.000019 -13.090370 -0.257413 0.999989 -13.090372 -0.257412 -1.000027 -11.066326 1.808160 1.000008 -11.066326 1.808160 -0.999996 -15.403454 0.393947 0.999996 -15.403454 0.393948 -1.000011 -5.973965 0.641921 0.999981 -5.973965 0.641921 -1.000019 -8.229582 -1.217932 0.999954 -8.229582 -1.217932 -1.000027 -9.163609 1.279000 0.999981 -9.163609 1.279000 -1.000019 -13.090370 -0.257413 0.999989 -13.090372 -0.257412 -1.000027 -2.232946 0.394880 1.000008 -2.232946 0.394880 -0.999989 -2.507705 -1.603112 0.999989 -2.507705 -1.603112 -0.999992 -5.973965 0.641921 0.999981 -5.973965 0.641921 -1.000019 -8.229582 -1.217932 0.999954 -8.229582 -1.217932 -1.000027 0.815118 0.461419 0.999996 0.815118 0.461419 -1.000004 1.714719 -1.516952 0.999989 1.714719 -1.516953 -1.000011 -2.232946 0.394880 1.000008 -2.232946 0.394880 -0.999989 -2.507705 -1.603112 0.999989 -2.507705 -1.603112 -0.999992 3.170715 0.612957 1.000004 3.170715 0.612957 -0.999992 4.508259 -1.338910 0.999989 4.508259 -1.338910 -0.999973 0.815118 0.461419 0.999996 0.815118 0.461419 -1.000004 1.714719 -1.516952 0.999989 1.714719 -1.516953 -1.000011 5.100883 0.758136 0.999996 5.100883 0.758136 -1.000004 6.417746 -1.195225 1.000008 6.417746 -1.195226 -1.000011 3.170715 0.612957 1.000004 3.170715 0.612957 -0.999992 4.508259 -1.338910 0.999989 4.508259 -1.338910 -0.999973 6.827531 0.872416 0.999996 6.827531 0.872416 -0.999989 7.885718 -1.097595 0.999989 7.885718 -1.097595 -0.999992 5.100883 0.758136 0.999996 5.100883 0.758136 -1.000004 6.417746 -1.195225 1.000008 6.417746 -1.195226 -1.000011 8.456127 0.950197 0.999996 8.456127 0.950197 -0.999992 9.126612 -1.037818 1.000008 9.126612 -1.037818 -1.000011 6.827531 0.872416 0.999996 6.827531 0.872416 -0.999989 7.885718 -1.097595 0.999989 7.885718 -1.097595 -0.999992 10.044867 0.988733 0.999996 10.044867 0.988733 -0.999992 10.266844 -1.009957 0.999989 10.266844 -1.009957 -1.000011 8.456127 0.950197 0.999996 8.456127 0.950197 -0.999992 9.126612 -1.037818 1.000008 9.126612 -1.037818 -1.000011 11.843113 1.013490 0.999992 11.843113 1.013490 -1.000004 11.843115 -0.986510 0.999989 11.843115 -0.986510 -0.999992 10.044867 0.988733 0.999996 10.044867 0.988733 -0.999992 10.266844 -1.009957 0.999989 10.266844 -1.009957 -1.000011 13.841532 1.039429 0.999992 13.841532 1.039429 -1.000004 13.841534 -0.960571 0.999989 13.841534 -0.960571 -0.999992 11.843113 1.013490 0.999992 11.843113 1.013490 -1.000004 11.843115 -0.986510 0.999989 11.843115 -0.986510 -0.999992 15.839951 1.065368 0.999992 15.839951 1.065368 -1.000004 15.839952 -0.934633 0.999989 15.839952 -0.934633 -0.999992 13.841532 1.039429 0.999992 13.841532 1.039429 -1.000004 13.841534 -0.960571 0.999989 13.841534 -0.960571 -0.999992 17.838364 1.091306 0.999992 17.838364 1.091306 -1.000004 17.838366 -0.908694 0.999989 17.838366 -0.908694 -0.999992 15.839951 1.065368 0.999992 15.839951 1.065368 -1.000004 15.839952 -0.934633 0.999989 15.839952 -0.934633 -0.999992 19.836786 1.117245 0.999992 19.836786 1.117245 -1.000004 19.836786 -0.882755 0.999989 19.836786 -0.882755 -0.999992 17.838364 1.091306 0.999992 17.838364 1.091306 -1.000004 17.838366 -0.908694 0.999989 17.838366 -0.908694 -0.999992 21.835203 1.143184 0.999992 21.835203 1.143184 -1.000004 21.835203 -0.856816 0.999989 21.835203 -0.856816 -0.999992 19.836786 1.117245 0.999992 19.836786 1.117245 -1.000004 19.836786 -0.882755 0.999989 19.836786 -0.882755 -0.999992 23.833620 1.169123 0.999992 23.833620 1.169123 -1.000004 23.833620 -0.830878 0.999989 23.833620 -0.830878 -0.999992 21.835203 1.143184 0.999992 21.835203 1.143184 -1.000004 21.835203 -0.856816 0.999989 21.835203 -0.856816 -0.999992 25.832039 1.195061 0.999992 25.832039 1.195061 -1.000004 25.832039 -0.804939 0.999989 25.832039 -0.804939 -0.999992 23.833620 1.169123 0.999992 23.833620 1.169123 -1.000004 23.833620 -0.830878 0.999989 23.833620 -0.830878 -0.999992 27.830458 1.221000 0.999992 27.830458 1.221000 -1.000004 27.830458 -0.779000 0.999989 27.830458 -0.779000 -0.999992 25.832039 1.195061 0.999992 25.832039 1.195061 -1.000004 25.832039 -0.804939 0.999989 25.832039 -0.804939 -0.999992 29.828875 1.246939 0.999992 29.828875 1.246939 -1.000004 29.828875 -0.753062 0.999989 29.828875 -0.753062 -0.999992 27.830458 1.221000 0.999992 27.830458 1.221000 -1.000004 27.830458 -0.779000 0.999989 27.830458 -0.779000 -0.999992 31.827293 1.272878 0.999992 31.827293 1.272878 -1.000004 31.827293 -0.727123 0.999989 31.827293 -0.727123 -0.999992 29.828875 1.246939 0.999992 29.828875 1.246939 -1.000004 29.828875 -0.753062 0.999989 29.828875 -0.753062 -0.999992 33.825710 1.298816 0.999992 33.825710 1.298816 -1.000004 33.825710 -0.701184 0.999989 33.825710 -0.701184 -0.999992 31.827293 1.272878 0.999992 31.827293 1.272878 -1.000004 31.827293 -0.727123 0.999989 31.827293 -0.727123 -0.999992 35.824127 1.324755 0.999992 35.824127 1.324755 -1.000004 35.824127 -0.675245 0.999989 35.824127 -0.675245 -0.999992 33.825710 1.298816 0.999992 33.825710 1.298816 -1.000004 33.825710 -0.701184 0.999989 33.825710 -0.701184 -0.999992 37.822548 1.350694 0.999992 37.822548 1.350694 -1.000004 37.822548 -0.649306 0.999989 37.822548 -0.649306 -0.999992 35.824127 1.324755 0.999992 35.824127 1.324755 -1.000004 35.824127 -0.675245 0.999989 35.824127 -0.675245 -0.999992 39.820965 1.376633 0.999992 39.820965 1.376633 -1.000004 39.820965 -0.623368 0.999989 39.820965 -0.623368 -0.999992 37.822548 1.350694 0.999992 37.822548 1.350694 -1.000004 37.822548 -0.649306 0.999989 37.822548 -0.649306 -0.999992 41.819374 1.402572 0.999992 41.819374 1.402572 -1.000004 41.819374 -0.597429 0.999989 41.819374 -0.597429 -0.999992 39.820965 1.376633 0.999992 39.820965 1.376633 -1.000004 39.820965 -0.623368 0.999989 39.820965 -0.623368 -0.999992 43.817791 1.428510 0.999992 43.817791 1.428510 -1.000004 43.817791 -0.571490 0.999989 43.817791 -0.571490 -0.999992 41.819374 1.402572 0.999992 41.819374 1.402572 -1.000004 41.819374 -0.597429 0.999989 41.819374 -0.597429 -0.999992 45.816219 1.454449 0.999992 45.816219 1.454449 -1.000004 45.816219 -0.545551 0.999989 45.816219 -0.545551 -0.999992 43.817791 1.428510 0.999992 43.817791 1.428510 -1.000004 43.817791 -0.571490 0.999989 43.817791 -0.571490 -0.999992 47.814636 1.480388 0.999992 47.814636 1.480388 -1.000004 47.814636 -0.519612 0.999989 47.814636 -0.519612 -0.999992 45.816219 1.454449 0.999992 45.816219 1.454449 -1.000004 45.816219 -0.545551 0.999989 45.816219 -0.545551 -0.999992 49.813053 1.506326 0.999992 49.813053 1.506326 -1.000004 49.813053 -0.493674 0.999989 49.813053 -0.493674 -0.999992 47.814636 1.480388 0.999992 47.814636 1.480388 -1.000004 47.814636 -0.519612 0.999989 47.814636 -0.519612 -0.999992 51.811474 1.532265 0.999992 51.811474 1.532265 -1.000004 51.811474 -0.467735 0.999989 51.811474 -0.467735 -0.999992 49.813053 1.506326 0.999992 49.813053 1.506326 -1.000004 49.813053 -0.493674 0.999989 49.813053 -0.493674 -0.999992 53.809883 1.558204 0.999992 53.809883 1.558204 -1.000004 53.809883 -0.441796 0.999989 53.809883 -0.441796 -0.999992 51.811474 1.532265 0.999992 51.811474 1.532265 -1.000004 51.811474 -0.467735 0.999989 51.811474 -0.467735 -0.999992 55.808315 1.584143 0.999992 55.808315 1.584143 -1.000004 55.808315 -0.415858 0.999989 55.808315 -0.415858 -0.999992 53.809883 1.558204 0.999992 53.809883 1.558204 -1.000004 53.809883 -0.441796 0.999989 53.809883 -0.441796 -0.999992 57.806717 1.610082 0.999992 57.806717 1.610082 -1.000004 57.806717 -0.389919 0.999989 57.806717 -0.389919 -0.999992 55.808315 1.584143 0.999992 55.808315 1.584143 -1.000004 55.808315 -0.415858 0.999989 55.808315 -0.415858 -0.999992 59.805138 1.636020 0.999992 59.805138 1.636020 -1.000004 59.805138 -0.363980 0.999989 59.805138 -0.363980 -0.999992 57.806717 1.610082 0.999992 57.806717 1.610082 -1.000004 57.806717 -0.389919 0.999989 57.806717 -0.389919 -0.999992 "
							            />
							<TextureCoordinate point="0.6250 0.5000 0.8750 0.5000 0.8750 0.7500 0.6250 0.7500 0.3750 0.7500 0.6250 0.7500 0.6250 1.0000 0.3750 1.0000 0.3750 0.0000 0.6250 0.0000 0.6250 0.2500 0.3750 0.2500 0.1250 0.5000 0.3750 0.5000 0.3750 0.7500 0.1250 0.7500 0.3750 0.5000 0.6250 0.5000 0.6250 0.7500 0.3750 0.7500 0.3750 0.2500 0.6250 0.2500 0.6250 0.5000 0.3750 0.5000 0.6250 0.5000 0.8750 0.5000 0.8750 0.7500 0.6250 0.7500 0.3750 0.7500 0.6250 0.7500 0.6250 1.0000 0.3750 1.0000 0.3750 0.0000 0.6250 0.0000 0.6250 0.2500 0.3750 0.2500 0.1250 0.5000 0.3750 0.5000 0.3750 0.7500 0.1250 0.7500 0.3750 0.5000 0.6250 0.5000 0.6250 0.7500 0.3750 0.7500 0.3750 0.2500 0.6250 0.2500 0.6250 0.5000 0.3750 0.5000 0.6250 0.5000 0.8750 0.5000 0.8750 0.7500 0.6250 0.7500 0.3750 0.7500 0.6250 0.7500 0.6250 1.0000 0.3750 1.0000 0.3750 0.0000 0.6250 0.0000 0.6250 0.2500 0.3750 0.2500 0.1250 0.5000 0.3750 0.5000 0.3750 0.7500 0.1250 0.7500 0.3750 0.5000 0.6250 0.5000 0.6250 0.7500 0.3750 0.7500 0.3750 0.2500 0.6250 0.2500 0.6250 0.5000 0.3750 0.5000 0.6250 0.5000 0.8750 0.5000 0.8750 0.7500 0.6250 0.7500 0.3750 0.7500 0.6250 0.7500 0.6250 1.0000 0.3750 1.0000 0.3750 0.0000 0.6250 0.0000 0.6250 0.2500 0.3750 0.2500 0.1250 0.5000 0.3750 0.5000 0.3750 0.7500 0.1250 0.7500 0.3750 0.5000 0.6250 0.5000 0.6250 0.7500 0.3750 0.7500 0.3750 0.2500 0.6250 0.2500 0.6250 0.5000 0.3750 0.5000 0.6250 0.5000 0.8750 0.5000 0.8750 0.7500 0.6250 0.7500 0.3750 0.7500 0.6250 0.7500 0.6250 1.0000 0.3750 1.0000 0.3750 0.0000 0.6250 0.0000 0.6250 0.2500 0.3750 0.2500 0.1250 0.5000 0.3750 0.5000 0.3750 0.7500 0.1250 0.7500 0.3750 0.5000 0.6250 0.5000 0.6250 0.7500 0.3750 0.7500 0.3750 0.2500 0.6250 0.2500 0.6250 0.5000 0.3750 0.5000 0.6250 0.5000 0.8750 0.5000 0.8750 0.7500 0.6250 0.7500 0.3750 0.7500 0.6250 0.7500 0.6250 1.0000 0.3750 1.0000 0.3750 0.0000 0.6250 0.0000 0.6250 0.2500 0.3750 0.2500 0.1250 0.5000 0.3750 0.5000 0.3750 0.7500 0.1250 0.7500 0.3750 0.5000 0.6250 0.5000 0.6250 0.7500 0.3750 0.7500 0.3750 0.2500 0.6250 0.2500 0.6250 0.5000 0.3750 0.5000 0.6250 0.5000 0.8750 0.5000 0.8750 0.7500 0.6250 0.7500 0.3750 0.7500 0.6250 0.7500 0.6250 1.0000 0.3750 1.0000 0.3750 0.0000 0.6250 0.0000 0.6250 0.2500 0.3750 0.2500 0.1250 0.5000 0.3750 0.5000 0.3750 0.7500 0.1250 0.7500 0.3750 0.5000 0.6250 0.5000 0.6250 0.7500 0.3750 0.7500 0.3750 0.2500 0.6250 0.2500 0.6250 0.5000 0.3750 0.5000 0.6250 0.5000 0.8750 0.5000 0.8750 0.7500 0.6250 0.7500 0.3750 0.7500 0.6250 0.7500 0.6250 1.0000 0.3750 1.0000 0.3750 0.0000 0.6250 0.0000 0.6250 0.2500 0.3750 0.2500 0.1250 0.5000 0.3750 0.5000 0.3750 0.7500 0.1250 0.7500 0.3750 0.5000 0.6250 0.5000 0.6250 0.7500 0.3750 0.7500 0.3750 0.2500 0.6250 0.2500 0.6250 0.5000 0.3750 0.5000 0.6250 0.5000 0.8750 0.5000 0.8750 0.7500 0.6250 0.7500 0.3750 0.7500 0.6250 0.7500 0.6250 1.0000 0.3750 1.0000 0.3750 0.0000 0.6250 0.0000 0.6250 0.2500 0.3750 0.2500 0.1250 0.5000 0.3750 0.5000 0.3750 0.7500 0.1250 0.7500 0.3750 0.5000 0.6250 0.5000 0.6250 0.7500 0.3750 0.7500 0.3750 0.2500 0.6250 0.2500 0.6250 0.5000 0.3750 0.5000 0.6250 0.5000 0.8750 0.5000 0.8750 0.7500 0.6250 0.7500 0.3750 0.7500 0.6250 0.7500 0.6250 1.0000 0.3750 1.0000 0.3750 0.0000 0.6250 0.0000 0.6250 0.2500 0.3750 0.2500 0.1250 0.5000 0.3750 0.5000 0.3750 0.7500 0.1250 0.7500 0.3750 0.5000 0.6250 0.5000 0.6250 0.7500 0.3750 0.7500 0.3750 0.2500 0.6250 0.2500 0.6250 0.5000 0.3750 0.5000 0.6250 0.5000 0.8750 0.5000 0.8750 0.7500 0.6250 0.7500 0.3750 0.7500 0.6250 0.7500 0.6250 1.0000 0.3750 1.0000 0.3750 0.0000 0.6250 0.0000 0.6250 0.2500 0.3750 0.2500 0.1250 0.5000 0.3750 0.5000 0.3750 0.7500 0.1250 0.7500 0.3750 0.5000 0.6250 0.5000 0.6250 0.7500 0.3750 0.7500 0.3750 0.2500 0.6250 0.2500 0.6250 0.5000 0.3750 0.5000 0.6250 0.5000 0.8750 0.5000 0.8750 0.7500 0.6250 0.7500 0.3750 0.7500 0.6250 0.7500 0.6250 1.0000 0.3750 1.0000 0.3750 0.0000 0.6250 0.0000 0.6250 0.2500 0.3750 0.2500 0.1250 0.5000 0.3750 0.5000 0.3750 0.7500 0.1250 0.7500 0.3750 0.5000 0.6250 0.5000 0.6250 0.7500 0.3750 0.7500 0.3750 0.2500 0.6250 0.2500 0.6250 0.5000 0.3750 0.5000 0.6250 0.5000 0.8750 0.5000 0.8750 0.7500 0.6250 0.7500 0.3750 0.7500 0.6250 0.7500 0.6250 1.0000 0.3750 1.0000 0.3750 0.0000 0.6250 0.0000 0.6250 0.2500 0.3750 0.2500 0.1250 0.5000 0.3750 0.5000 0.3750 0.7500 0.1250 0.7500 0.3750 0.5000 0.6250 0.5000 0.6250 0.7500 0.3750 0.7500 0.3750 0.2500 0.6250 0.2500 0.6250 0.5000 0.3750 0.5000 0.6250 0.5000 0.8750 0.5000 0.8750 0.7500 0.6250 0.7500 0.3750 0.7500 0.6250 0.7500 0.6250 1.0000 0.3750 1.0000 0.3750 0.0000 0.6250 0.0000 0.6250 0.2500 0.3750 0.2500 0.1250 0.5000 0.3750 0.5000 0.3750 0.7500 0.1250 0.7500 0.3750 0.5000 0.6250 0.5000 0.6250 0.7500 0.3750 0.7500 0.3750 0.2500 0.6250 0.2500 0.6250 0.5000 0.3750 0.5000 0.6250 0.5000 0.8750 0.5000 0.8750 0.7500 0.6250 0.7500 0.3750 0.7500 0.6250 0.7500 0.6250 1.0000 0.3750 1.0000 0.3750 0.0000 0.6250 0.0000 0.6250 0.2500 0.3750 0.2500 0.1250 0.5000 0.3750 0.5000 0.3750 0.7500 0.1250 0.7500 0.3750 0.5000 0.6250 0.5000 0.6250 0.7500 0.3750 0.7500 0.3750 0.2500 0.6250 0.2500 0.6250 0.5000 0.3750 0.5000 0.6250 0.5000 0.8750 0.5000 0.8750 0.7500 0.6250 0.7500 0.3750 0.7500 0.6250 0.7500 0.6250 1.0000 0.3750 1.0000 0.3750 0.0000 0.6250 0.0000 0.6250 0.2500 0.3750 0.2500 0.1250 0.5000 0.3750 0.5000 0.3750 0.7500 0.1250 0.7500 0.3750 0.5000 0.6250 0.5000 0.6250 0.7500 0.3750 0.7500 0.3750 0.2500 0.6250 0.2500 0.6250 0.5000 0.3750 0.5000 0.6250 0.5000 0.8750 0.5000 0.8750 0.7500 0.6250 0.7500 0.3750 0.7500 0.6250 0.7500 0.6250 1.0000 0.3750 1.0000 0.3750 0.0000 0.6250 0.0000 0.6250 0.2500 0.3750 0.2500 0.1250 0.5000 0.3750 0.5000 0.3750 0.7500 0.1250 0.7500 0.3750 0.5000 0.6250 0.5000 0.6250 0.7500 0.3750 0.7500 0.3750 0.2500 0.6250 0.2500 0.6250 0.5000 0.3750 0.5000 0.6250 0.5000 0.8750 0.5000 0.8750 0.7500 0.6250 0.7500 0.3750 0.7500 0.6250 0.7500 0.6250 1.0000 0.3750 1.0000 0.3750 0.0000 0.6250 0.0000 0.6250 0.2500 0.3750 0.2500 0.1250 0.5000 0.3750 0.5000 0.3750 0.7500 0.1250 0.7500 0.3750 0.5000 0.6250 0.5000 0.6250 0.7500 0.3750 0.7500 0.3750 0.2500 0.6250 0.2500 0.6250 0.5000 0.3750 0.5000 0.6250 0.5000 0.8750 0.5000 0.8750 0.7500 0.6250 0.7500 0.3750 0.7500 0.6250 0.7500 0.6250 1.0000 0.3750 1.0000 0.3750 0.0000 0.6250 0.0000 0.6250 0.2500 0.3750 0.2500 0.1250 0.5000 0.3750 0.5000 0.3750 0.7500 0.1250 0.7500 0.3750 0.5000 0.6250 0.5000 0.6250 0.7500 0.3750 0.7500 0.3750 0.2500 0.6250 0.2500 0.6250 0.5000 0.3750 0.5000 0.6250 0.5000 0.8750 0.5000 0.8750 0.7500 0.6250 0.7500 0.3750 0.7500 0.6250 0.7500 0.6250 1.0000 0.3750 1.0000 0.3750 0.0000 0.6250 0.0000 0.6250 0.2500 0.3750 0.2500 0.1250 0.5000 0.3750 0.5000 0.3750 0.7500 0.1250 0.7500 0.3750 0.5000 0.6250 0.5000 0.6250 0.7500 0.3750 0.7500 0.3750 0.2500 0.6250 0.2500 0.6250 0.5000 0.3750 0.5000 0.6250 0.5000 0.8750 0.5000 0.8750 0.7500 0.6250 0.7500 0.3750 0.7500 0.6250 0.7500 0.6250 1.0000 0.3750 1.0000 0.3750 0.0000 0.6250 0.0000 0.6250 0.2500 0.3750 0.2500 0.1250 0.5000 0.3750 0.5000 0.3750 0.7500 0.1250 0.7500 0.3750 0.5000 0.6250 0.5000 0.6250 0.7500 0.3750 0.7500 0.3750 0.2500 0.6250 0.2500 0.6250 0.5000 0.3750 0.5000 0.6250 0.5000 0.8750 0.5000 0.8750 0.7500 0.6250 0.7500 0.3750 0.7500 0.6250 0.7500 0.6250 1.0000 0.3750 1.0000 0.3750 0.0000 0.6250 0.0000 0.6250 0.2500 0.3750 0.2500 0.1250 0.5000 0.3750 0.5000 0.3750 0.7500 0.1250 0.7500 0.3750 0.5000 0.6250 0.5000 0.6250 0.7500 0.3750 0.7500 0.3750 0.2500 0.6250 0.2500 0.6250 0.5000 0.3750 0.5000 0.6250 0.5000 0.8750 0.5000 0.8750 0.7500 0.6250 0.7500 0.3750 0.7500 0.6250 0.7500 0.6250 1.0000 0.3750 1.0000 0.3750 0.0000 0.6250 0.0000 0.6250 0.2500 0.3750 0.2500 0.1250 0.5000 0.3750 0.5000 0.3750 0.7500 0.1250 0.7500 0.3750 0.5000 0.6250 0.5000 0.6250 0.7500 0.3750 0.7500 0.3750 0.2500 0.6250 0.2500 0.6250 0.5000 0.3750 0.5000 0.6250 0.5000 0.8750 0.5000 0.8750 0.7500 0.6250 0.7500 0.3750 0.7500 0.6250 0.7500 0.6250 1.0000 0.3750 1.0000 0.3750 0.0000 0.6250 0.0000 0.6250 0.2500 0.3750 0.2500 0.1250 0.5000 0.3750 0.5000 0.3750 0.7500 0.1250 0.7500 0.3750 0.5000 0.6250 0.5000 0.6250 0.7500 0.3750 0.7500 0.3750 0.2500 0.6250 0.2500 0.6250 0.5000 0.3750 0.5000 0.6250 0.5000 0.8750 0.5000 0.8750 0.7500 0.6250 0.7500 0.3750 0.7500 0.6250 0.7500 0.6250 1.0000 0.3750 1.0000 0.3750 0.0000 0.6250 0.0000 0.6250 0.2500 0.3750 0.2500 0.1250 0.5000 0.3750 0.5000 0.3750 0.7500 0.1250 0.7500 0.3750 0.5000 0.6250 0.5000 0.6250 0.7500 0.3750 0.7500 0.3750 0.2500 0.6250 0.2500 0.6250 0.5000 0.3750 0.5000 0.6250 0.5000 0.8750 0.5000 0.8750 0.7500 0.6250 0.7500 0.3750 0.7500 0.6250 0.7500 0.6250 1.0000 0.3750 1.0000 0.3750 0.0000 0.6250 0.0000 0.6250 0.2500 0.3750 0.2500 0.1250 0.5000 0.3750 0.5000 0.3750 0.7500 0.1250 0.7500 0.3750 0.5000 0.6250 0.5000 0.6250 0.7500 0.3750 0.7500 0.3750 0.2500 0.6250 0.2500 0.6250 0.5000 0.3750 0.5000 0.6250 0.5000 0.8750 0.5000 0.8750 0.7500 0.6250 0.7500 0.3750 0.7500 0.6250 0.7500 0.6250 1.0000 0.3750 1.0000 0.3750 0.0000 0.6250 0.0000 0.6250 0.2500 0.3750 0.2500 0.1250 0.5000 0.3750 0.5000 0.3750 0.7500 0.1250 0.7500 0.3750 0.5000 0.6250 0.5000 0.6250 0.7500 0.3750 0.7500 0.3750 0.2500 0.6250 0.2500 0.6250 0.5000 0.3750 0.5000 0.6250 0.5000 0.8750 0.5000 0.8750 0.7500 0.6250 0.7500 0.3750 0.7500 0.6250 0.7500 0.6250 1.0000 0.3750 1.0000 0.3750 0.0000 0.6250 0.0000 0.6250 0.2500 0.3750 0.2500 0.1250 0.5000 0.3750 0.5000 0.3750 0.7500 0.1250 0.7500 0.3750 0.5000 0.6250 0.5000 0.6250 0.7500 0.3750 0.7500 0.3750 0.2500 0.6250 0.2500 0.6250 0.5000 0.3750 0.5000 0.6250 0.5000 0.8750 0.5000 0.8750 0.7500 0.6250 0.7500 0.3750 0.7500 0.6250 0.7500 0.6250 1.0000 0.3750 1.0000 0.3750 0.0000 0.6250 0.0000 0.6250 0.2500 0.3750 0.2500 0.1250 0.5000 0.3750 0.5000 0.3750 0.7500 0.1250 0.7500 0.3750 0.5000 0.6250 0.5000 0.6250 0.7500 0.3750 0.7500 0.3750 0.2500 0.6250 0.2500 0.6250 0.5000 0.3750 0.5000 0.6250 0.5000 0.8750 0.5000 0.8750 0.7500 0.6250 0.7500 0.3750 0.7500 0.6250 0.7500 0.6250 1.0000 0.3750 1.0000 0.3750 0.0000 0.6250 0.0000 0.6250 0.2500 0.3750 0.2500 0.1250 0.5000 0.3750 0.5000 0.3750 0.7500 0.1250 0.7500 0.3750 0.5000 0.6250 0.5000 0.6250 0.7500 0.3750 0.7500 0.3750 0.2500 0.6250 0.2500 0.6250 0.5000 0.3750 0.5000 0.6250 0.5000 0.8750 0.5000 0.8750 0.7500 0.6250 0.7500 0.3750 0.7500 0.6250 0.7500 0.6250 1.0000 0.3750 1.0000 0.3750 0.0000 0.6250 0.0000 0.6250 0.2500 0.3750 0.2500 0.1250 0.5000 0.3750 0.5000 0.3750 0.7500 0.1250 0.7500 0.3750 0.5000 0.6250 0.5000 0.6250 0.7500 0.3750 0.7500 0.3750 0.2500 0.6250 0.2500 0.6250 0.5000 0.3750 0.5000 0.6250 0.5000 0.8750 0.5000 0.8750 0.7500 0.6250 0.7500 0.3750 0.7500 0.6250 0.7500 0.6250 1.0000 0.3750 1.0000 0.3750 0.0000 0.6250 0.0000 0.6250 0.2500 0.3750 0.2500 0.1250 0.5000 0.3750 0.5000 0.3750 0.7500 0.1250 0.7500 0.3750 0.5000 0.6250 0.5000 0.6250 0.7500 0.3750 0.7500 0.3750 0.2500 0.6250 0.2500 0.6250 0.5000 0.3750 0.5000 0.6250 0.5000 0.8750 0.5000 0.8750 0.7500 0.6250 0.7500 0.3750 0.7500 0.6250 0.7500 0.6250 1.0000 0.3750 1.0000 0.3750 0.0000 0.6250 0.0000 0.6250 0.2500 0.3750 0.2500 0.1250 0.5000 0.3750 0.5000 0.3750 0.7500 0.1250 0.7500 0.3750 0.5000 0.6250 0.5000 0.6250 0.7500 0.3750 0.7500 0.3750 0.2500 0.6250 0.2500 0.6250 0.5000 0.3750 0.5000 0.6250 0.5000 0.8750 0.5000 0.8750 0.7500 0.6250 0.7500 0.3750 0.7500 0.6250 0.7500 0.6250 1.0000 0.3750 1.0000 0.3750 0.0000 0.6250 0.0000 0.6250 0.2500 0.3750 0.2500 0.1250 0.5000 0.3750 0.5000 0.3750 0.7500 0.1250 0.7500 0.3750 0.5000 0.6250 0.5000 0.6250 0.7500 0.3750 0.7500 0.3750 0.2500 0.6250 0.2500 0.6250 0.5000 0.3750 0.5000 0.6250 0.5000 0.8750 0.5000 0.8750 0.7500 0.6250 0.7500 0.3750 0.7500 0.6250 0.7500 0.6250 1.0000 0.3750 1.0000 0.3750 0.0000 0.6250 0.0000 0.6250 0.2500 0.3750 0.2500 0.1250 0.5000 0.3750 0.5000 0.3750 0.7500 0.1250 0.7500 0.3750 0.5000 0.6250 0.5000 0.6250 0.7500 0.3750 0.7500 0.3750 0.2500 0.6250 0.2500 0.6250 0.5000 0.3750 0.5000 " />
						</IndexedFaceSet>
					</Shape>
				</Group>
			</Transform>
		</Transform>
		<Transform DEF="BézierCurve_TRANSFORM"
		           translation="0.000000 0.000000 0.000000"
		           scale="-7.257689 -3.524364 -4.151436"
		           rotation="-0.000000 -0.707107 0.707107 3.141593"
		           >
			<Transform DEF="BézierCurve_ifs_TRANSFORM"
			           translation="0.000000 0.000000 0.000000"
			           scale="1.000000 1.000000 1.000000"
			           rotation="0.000000 1.000000 0.000000 0.000000"
			           >
				<Group DEF="group_ME_BézierCurve">
				</Group>
			</Transform>
		</Transform>
	</Scene>
</X3D>