<?xml version="1.0" encoding="UTF-8"?>
<!DOCTYPE X3D PUBLIC "ISO//Web3D//DTD X3D 3.0//EN" "http://www.web3d.org/specifications/x3d-3.0.dtd">
<X3D version="3.0" profile="Immersive" xmlns:xsd="http://www.w3.org/2001/XMLSchema-instance" xsd:noNamespaceSchemaLocation="http://www.web3d.org/specifications/x3d-3.0.xsd">
	<head>
		<meta name="filename" content="windows.x3d" />
		<meta name="generator" content="Blender 4.0.1" />
	</head>
	<Scene>
		<NavigationInfo headlight="true"
		                visibilityLimit="0.0"
		                type='"EXAMINE", "ANY"'
		                avatarSize="0.25, 1.75, 0.75"
		                />
		<Background DEF="WO_World"
		            groundColor="0.051 0.051 0.051"
		            skyColor="0.051 0.051 0.051"
		            />
		<Transform DEF="Camera_TRANSFORM"
		           translation="-7.358891 4.958309 -6.925791"
		           scale="1.000000 1.000000 1.000000"
		           rotation="-0.098233 -0.968789 -0.227591 2.349487"
		           >
			<Viewpoint DEF="CA_Camera"
			           centerOfRotation="0 0 0"
			           position="-0.00 -0.00 0.00"
			           orientation="-0.00 -0.47 -0.88 0.00"
			           fieldOfView="0.691"
			           />
		</Transform>
		<Transform DEF="CA_Camera_TRANSFORM"
		           translation="7.358891 4.958309 6.925791"
		           scale="1.000000 1.000000 1.000000"
		           rotation="-0.468195 0.860207 0.202082 0.930113"
		           >
			<Viewpoint DEF="CA_CA_Camera"
			           centerOfRotation="0 0 0"
			           position="0.00 0.00 -0.00"
			           orientation="0.26 0.93 0.25 0.00"
			           fieldOfView="0.691"
			           />
		</Transform>
		<Transform DEF="CA_CA_Camera_TRANSFORM"
		           translation="7.358891 4.958309 6.925791"
		           scale="1.000000 1.000000 1.000000"
		           rotation="-0.468195 0.860207 0.202082 0.930113"
		           >
			<Viewpoint DEF="CA_CA_CA_Camera"
			           centerOfRotation="0 0 0"
			           position="0.00 0.00 -0.00"
			           orientation="0.26 0.93 0.25 0.00"
			           fieldOfView="0.691"
			           />
		</Transform>
		<Transform DEF="Shape_IndexedFaceSet_042_TRANSFORM"
		           translation="0.000000 0.000000 0.000000"
		           scale="1.000000 1.000000 1.000000"
		           rotation="-0.000000 0.000000 0.000000 0.000000"
		           >
			<Transform DEF="Shape_IndexedFaceSet_042_ifs_TRANSFORM"
			           translation="0.000000 0.000000 0.000000"
			           scale="1.000000 1.000000 1.000000"
			           rotation="0.000000 1.000000 0.000000 0.000000"
			           >
				<Group DEF="group_ME_Shape_IndexedFaceSet_042">
					<Shape>
						<Appearance>
							<Material DEF="MA_MA_MA_drzwi"
							          diffuseColor="0.482, 0.996, 1"
							          specularColor="0.401 0.401 0.401"
							          emissiveColor="0.000 0.000 0.000"
							          ambientIntensity="0.000"
							          shininess="0.500"
							          transparency="0.0"
							          />
						</Appearance>
						<IndexedFaceSet solid="false"
						                texCoordIndex="0 1 2 3 -1 4 5 6 7 -1 8 9 10 11 -1 12 13 14 15 -1 "
						                coordIndex="2 3 7 6 -1 6 7 5 4 -1 4 5 1 0 -1 7 3 1 5 -1 "
						                >
							<Coordinate DEF="coords_ME_Shape_IndexedFaceSet_042"
							            point="13.726705 -5.349655 1.332670 13.726705 -0.650345 1.332670 13.726705 -5.349655 -1.332670 13.726705 -0.650345 -1.332670 14.273295 -5.349655 1.332670 14.273295 -0.650345 1.332670 14.273295 -5.349655 -1.332670 14.273295 -0.650345 -1.332670 "
							            />
							<TextureCoordinate point="0.3750 0.2500 0.6250 0.2500 0.6250 0.5000 0.3750 0.5000 0.3750 0.5000 0.6250 0.5000 0.6250 0.7500 0.3750 0.7500 0.3750 0.7500 0.6250 0.7500 0.6250 1.0000 0.3750 1.0000 0.6250 0.5000 0.8750 0.5000 0.8750 0.7500 0.6250 0.7500 " />
						</IndexedFaceSet>
					</Shape>
				</Group>
			</Transform>
		</Transform>
		<Transform DEF="Shape_IndexedFaceSet_043_TRANSFORM"
		           translation="0.000000 0.000000 0.000000"
		           scale="1.000000 1.000000 1.000000"
		           rotation="-0.000000 0.000000 0.000000 0.000000"
		           >
			<Transform DEF="Shape_IndexedFaceSet_043_ifs_TRANSFORM"
			           translation="0.000000 0.000000 0.000000"
			           scale="1.000000 1.000000 1.000000"
			           rotation="0.000000 1.000000 0.000000 0.000000"
			           >
				<Group DEF="group_ME_Shape_IndexedFaceSet_043">
					<Shape>
						<Appearance>
							<Material DEF="MA_MA_MA_kolorOkna_001"
							          diffuseColor="0.482, 0.996, 1"
							          specularColor="0.401 0.401 0.401"
							          emissiveColor="0.000 0.000 0.000"
							          ambientIntensity="0.000"
							          shininess="0.500"
							          transparency="0.0"
							          />
						</Appearance>
						<IndexedFaceSet solid="false"
						                texCoordIndex="0 1 2 3 -1 4 5 6 7 -1 8 9 10 11 -1 12 13 14 15 -1 16 17 18 19 -1 20 21 22 23 -1 "
						                coordIndex="0 1 3 2 -1 2 3 7 6 -1 6 7 5 4 -1 4 5 1 0 -1 2 6 4 0 -1 7 3 1 5 -1 "
						                >
							<Coordinate DEF="coords_ME_Shape_IndexedFaceSet_043"
							            point="7.430541 4.362748 2.507622 7.430541 9.637252 2.507622 7.430541 4.362748 -2.507622 7.430541 9.637252 -2.507622 8.569459 4.362748 2.507622 8.569459 9.637252 2.507622 8.569459 4.362748 -2.507622 8.569459 9.637252 -2.507622 "
							            />
							<TextureCoordinate point="0.3750 0.0000 0.6250 0.0000 0.6250 0.2500 0.3750 0.2500 0.3750 0.2500 0.6250 0.2500 0.6250 0.5000 0.3750 0.5000 0.3750 0.5000 0.6250 0.5000 0.6250 0.7500 0.3750 0.7500 0.3750 0.7500 0.6250 0.7500 0.6250 1.0000 0.3750 1.0000 0.1250 0.5000 0.3750 0.5000 0.3750 0.7500 0.1250 0.7500 0.6250 0.5000 0.8750 0.5000 0.8750 0.7500 0.6250 0.7500 " />
						</IndexedFaceSet>
					</Shape>
				</Group>
			</Transform>
		</Transform>
		<Transform DEF="Shape_IndexedFaceSet_045_TRANSFORM"
		           translation="0.000000 0.000000 0.000000"
		           scale="1.000000 1.000000 1.000000"
		           rotation="-0.000000 0.000000 0.000000 0.000000"
		           >
			<Transform DEF="Shape_IndexedFaceSet_045_ifs_TRANSFORM"
			           translation="0.000000 0.000000 0.000000"
			           scale="1.000000 1.000000 1.000000"
			           rotation="0.000000 1.000000 0.000000 0.000000"
			           >
				<Group DEF="group_ME_Shape_IndexedFaceSet_045">
					<Shape>
						<Appearance>
							<Material USE="MA_MA_MA_kolorOkna_001" />
						</Appearance>
						<IndexedFaceSet solid="false"
						                texCoordIndex="0 1 2 3 -1 4 5 6 7 -1 8 9 10 11 -1 12 13 14 15 -1 16 17 18 19 -1 20 21 22 23 -1 "
						                coordIndex="0 2 3 1 -1 2 6 7 3 -1 6 4 5 7 -1 4 0 1 5 -1 2 0 4 6 -1 7 5 1 3 -1 "
						                >
							<Coordinate DEF="coords_ME_Shape_IndexedFaceSet_045"
							            point="3.110063 13.686798 6.578044 3.110063 10.313202 6.578044 3.110063 13.686798 9.421955 3.110063 10.313202 9.421955 0.889937 13.686798 6.578044 0.889937 10.313202 6.578044 0.889937 13.686798 9.421955 0.889937 10.313202 9.421955 "
							            />
							<TextureCoordinate point="0.3750 0.0000 0.3750 0.2500 0.6250 0.2500 0.6250 0.0000 0.3750 0.2500 0.3750 0.5000 0.6250 0.5000 0.6250 0.2500 0.3750 0.5000 0.3750 0.7500 0.6250 0.7500 0.6250 0.5000 0.3750 0.7500 0.3750 1.0000 0.6250 1.0000 0.6250 0.7500 0.1250 0.5000 0.1250 0.7500 0.3750 0.7500 0.3750 0.5000 0.6250 0.5000 0.6250 0.7500 0.8750 0.7500 0.8750 0.5000 " />
						</IndexedFaceSet>
					</Shape>
				</Group>
			</Transform>
		</Transform>
		<Transform DEF="Shape_IndexedFaceSet_046_TRANSFORM"
		           translation="0.000000 0.000000 0.000000"
		           scale="1.000000 1.000000 1.000000"
		           rotation="-0.000000 0.000000 0.000000 0.000000"
		           >
			<Transform DEF="Shape_IndexedFaceSet_046_ifs_TRANSFORM"
			           translation="0.000000 0.000000 0.000000"
			           scale="1.000000 1.000000 1.000000"
			           rotation="0.000000 1.000000 0.000000 0.000000"
			           >
				<Group DEF="group_ME_Shape_IndexedFaceSet_046">
					<Shape>
						<Appearance>
							<Material USE="MA_MA_MA_kolorOkna_001" />
						</Appearance>
						<IndexedFaceSet solid="false"
						                texCoordIndex="0 1 2 3 -1 4 5 6 7 -1 8 9 10 11 -1 12 13 14 15 -1 16 17 18 19 -1 20 21 22 23 -1 "
						                coordIndex="0 1 3 2 -1 2 3 7 6 -1 6 7 5 4 -1 4 5 1 0 -1 2 6 4 0 -1 7 3 1 5 -1 "
						                >
							<Coordinate DEF="coords_ME_Shape_IndexedFaceSet_046"
							            point="2.244967 4.411859 9.900238 2.244967 7.588141 9.900238 2.244967 4.411859 6.099762 2.244967 7.588141 6.099762 3.755033 4.411859 9.900238 3.755033 7.588141 9.900238 3.755033 4.411859 6.099762 3.755033 7.588141 6.099762 "
							            />
							<TextureCoordinate point="0.3750 0.0000 0.6250 0.0000 0.6250 0.2500 0.3750 0.2500 0.3750 0.2500 0.6250 0.2500 0.6250 0.5000 0.3750 0.5000 0.3750 0.5000 0.6250 0.5000 0.6250 0.7500 0.3750 0.7500 0.3750 0.7500 0.6250 0.7500 0.6250 1.0000 0.3750 1.0000 0.1250 0.5000 0.3750 0.5000 0.3750 0.7500 0.1250 0.7500 0.6250 0.5000 0.8750 0.5000 0.8750 0.7500 0.6250 0.7500 " />
						</IndexedFaceSet>
					</Shape>
				</Group>
			</Transform>
		</Transform>
		<Transform DEF="Shape_IndexedFaceSet_047_TRANSFORM"
		           translation="0.000000 0.000000 0.000000"
		           scale="1.000000 1.000000 1.000000"
		           rotation="-0.000000 0.000000 0.000000 0.000000"
		           >
			<Transform DEF="Shape_IndexedFaceSet_047_ifs_TRANSFORM"
			           translation="0.000000 0.000000 0.000000"
			           scale="1.000000 1.000000 1.000000"
			           rotation="0.000000 1.000000 0.000000 0.000000"
			           >
				<Group DEF="group_ME_Shape_IndexedFaceSet_047">
					<Shape>
						<Appearance>
							<Material USE="MA_MA_MA_kolorOkna_001" />
						</Appearance>
						<IndexedFaceSet solid="false"
						                texCoordIndex="0 1 2 3 -1 4 5 6 7 -1 8 9 10 11 -1 12 13 14 15 -1 16 17 18 19 -1 20 21 22 23 -1 "
						                coordIndex="0 2 3 1 -1 2 6 7 3 -1 6 4 5 7 -1 4 0 1 5 -1 2 0 4 6 -1 7 5 1 3 -1 "
						                >
							<Coordinate DEF="coords_ME_Shape_IndexedFaceSet_047"
							            point="3.416651 13.686798 -9.421955 3.416651 10.313202 -9.421955 3.416651 13.686798 -6.578044 3.416651 10.313202 -6.578044 0.583349 13.686798 -9.421955 0.583349 10.313202 -9.421955 0.583349 13.686798 -6.578044 0.583349 10.313202 -6.578044 "
							            />
							<TextureCoordinate point="0.3750 0.0000 0.3750 0.2500 0.6250 0.2500 0.6250 0.0000 0.3750 0.2500 0.3750 0.5000 0.6250 0.5000 0.6250 0.2500 0.3750 0.5000 0.3750 0.7500 0.6250 0.7500 0.6250 0.5000 0.3750 0.7500 0.3750 1.0000 0.6250 1.0000 0.6250 0.7500 0.1250 0.5000 0.1250 0.7500 0.3750 0.7500 0.3750 0.5000 0.6250 0.5000 0.6250 0.7500 0.8750 0.7500 0.8750 0.5000 " />
						</IndexedFaceSet>
					</Shape>
				</Group>
			</Transform>
		</Transform>
		<Transform DEF="Shape_IndexedFaceSet_048_TRANSFORM"
		           translation="0.000000 0.000000 0.000000"
		           scale="1.000000 1.000000 1.000000"
		           rotation="-0.000000 0.000000 0.000000 0.000000"
		           >
			<Transform DEF="Shape_IndexedFaceSet_048_ifs_TRANSFORM"
			           translation="0.000000 0.000000 0.000000"
			           scale="1.000000 1.000000 1.000000"
			           rotation="0.000000 1.000000 0.000000 0.000000"
			           >
				<Group DEF="group_ME_Shape_IndexedFaceSet_048">
					<Shape>
						<Appearance>
							<Material USE="MA_MA_MA_kolorOkna_001" />
						</Appearance>
						<IndexedFaceSet solid="false"
						                texCoordIndex="0 1 2 3 -1 4 5 6 7 -1 8 9 10 11 -1 12 13 14 15 -1 16 17 18 19 -1 20 21 22 23 -1 "
						                coordIndex="0 2 3 1 -1 2 6 7 3 -1 6 4 5 7 -1 4 0 1 5 -1 2 0 4 6 -1 7 5 1 3 -1 "
						                >
							<Coordinate DEF="coords_ME_Shape_IndexedFaceSet_048"
							            point="4.164692 4.373291 -6.053616 4.164692 7.626709 -6.053616 4.164692 4.373291 -9.946384 4.164692 7.626709 -9.946384 1.835308 4.373291 -6.053616 1.835308 7.626709 -6.053616 1.835308 4.373291 -9.946384 1.835308 7.626709 -9.946384 "
							            />
							<TextureCoordinate point="0.3750 0.0000 0.3750 0.2500 0.6250 0.2500 0.6250 0.0000 0.3750 0.2500 0.3750 0.5000 0.6250 0.5000 0.6250 0.2500 0.3750 0.5000 0.3750 0.7500 0.6250 0.7500 0.6250 0.5000 0.3750 0.7500 0.3750 1.0000 0.6250 1.0000 0.6250 0.7500 0.1250 0.5000 0.1250 0.7500 0.3750 0.7500 0.3750 0.5000 0.6250 0.5000 0.6250 0.7500 0.8750 0.7500 0.8750 0.5000 " />
						</IndexedFaceSet>
					</Shape>
				</Group>
			</Transform>
		</Transform>
		<Transform DEF="Shape_IndexedFaceSet_049_TRANSFORM"
		           translation="0.000000 0.000000 0.000000"
		           scale="1.000000 1.000000 1.000000"
		           rotation="-0.000000 0.000000 0.000000 0.000000"
		           >
			<Transform DEF="Shape_IndexedFaceSet_049_ifs_TRANSFORM"
			           translation="0.000000 0.000000 0.000000"
			           scale="1.000000 1.000000 1.000000"
			           rotation="0.000000 1.000000 0.000000 0.000000"
			           >
				<Group DEF="group_ME_Shape_IndexedFaceSet_049">
					<Shape>
						<Appearance>
							<Material USE="MA_MA_MA_kolorOkna_001" />
						</Appearance>
						<IndexedFaceSet solid="false"
						                texCoordIndex="0 1 2 3 -1 4 5 6 7 -1 8 9 10 11 -1 12 13 14 15 -1 16 17 18 19 -1 20 21 22 23 -1 "
						                coordIndex="0 1 3 2 -1 2 3 7 6 -1 6 7 5 4 -1 4 5 1 0 -1 2 6 4 0 -1 7 3 1 5 -1 "
						                >
							<Coordinate DEF="coords_ME_Shape_IndexedFaceSet_049"
							            point="3.738225 -3.182627 10.501400 3.738225 1.182627 10.501400 3.738225 -3.182627 7.498600 3.738225 1.182627 7.498600 4.261775 -3.182627 10.501400 4.261775 1.182627 10.501400 4.261775 -3.182627 7.498600 4.261775 1.182627 7.498600 "
							            />
							<TextureCoordinate point="0.3750 0.0000 0.6250 0.0000 0.6250 0.2500 0.3750 0.2500 0.3750 0.2500 0.6250 0.2500 0.6250 0.5000 0.3750 0.5000 0.3750 0.5000 0.6250 0.5000 0.6250 0.7500 0.3750 0.7500 0.3750 0.7500 0.6250 0.7500 0.6250 1.0000 0.3750 1.0000 0.1250 0.5000 0.3750 0.5000 0.3750 0.7500 0.1250 0.7500 0.6250 0.5000 0.8750 0.5000 0.8750 0.7500 0.6250 0.7500 " />
						</IndexedFaceSet>
					</Shape>
				</Group>
			</Transform>
		</Transform>
		<Transform DEF="Shape_IndexedFaceSet_050_TRANSFORM"
		           translation="0.000000 0.000000 0.000000"
		           scale="1.000000 1.000000 1.000000"
		           rotation="-0.000000 0.000000 0.000000 0.000000"
		           >
			<Transform DEF="Shape_IndexedFaceSet_050_ifs_TRANSFORM"
			           translation="0.000000 0.000000 0.000000"
			           scale="1.000000 1.000000 1.000000"
			           rotation="0.000000 1.000000 0.000000 0.000000"
			           >
				<Group DEF="group_ME_Shape_IndexedFaceSet_050">
					<Shape>
						<Appearance>
							<Material USE="MA_MA_MA_kolorOkna_001" />
						</Appearance>
						<IndexedFaceSet solid="false"
						                texCoordIndex="0 1 2 3 -1 4 5 6 7 -1 8 9 10 11 -1 12 13 14 15 -1 16 17 18 19 -1 20 21 22 23 -1 "
						                coordIndex="0 1 3 2 -1 2 3 7 6 -1 6 7 5 4 -1 4 5 1 0 -1 2 6 4 0 -1 7 3 1 5 -1 "
						                >
							<Coordinate DEF="coords_ME_Shape_IndexedFaceSet_050"
							            point="3.367714 -3.182627 -7.498600 3.367714 1.182627 -7.498600 3.367714 -3.182627 -10.501400 3.367714 1.182627 -10.501400 4.632286 -3.182627 -7.498600 4.632286 1.182627 -7.498600 4.632286 -3.182627 -10.501400 4.632286 1.182627 -10.501400 "
							            />
							<TextureCoordinate point="0.3750 0.0000 0.6250 0.0000 0.6250 0.2500 0.3750 0.2500 0.3750 0.2500 0.6250 0.2500 0.6250 0.5000 0.3750 0.5000 0.3750 0.5000 0.6250 0.5000 0.6250 0.7500 0.3750 0.7500 0.3750 0.7500 0.6250 0.7500 0.6250 1.0000 0.3750 1.0000 0.1250 0.5000 0.3750 0.5000 0.3750 0.7500 0.1250 0.7500 0.6250 0.5000 0.8750 0.5000 0.8750 0.7500 0.6250 0.7500 " />
						</IndexedFaceSet>
					</Shape>
				</Group>
			</Transform>
		</Transform>
		<Transform DEF="Shape_IndexedFaceSet_044_TRANSFORM"
		           translation="0.000000 0.000000 0.000000"
		           scale="1.000000 1.000000 1.000000"
		           rotation="-0.000000 0.000000 0.000000 0.000000"
		           >
			<Transform DEF="Shape_IndexedFaceSet_044_ifs_TRANSFORM"
			           translation="0.000000 0.000000 0.000000"
			           scale="1.000000 1.000000 1.000000"
			           rotation="0.000000 1.000000 0.000000 0.000000"
			           >
				<Group DEF="group_ME_Shape_IndexedFaceSet_044">
					<Shape>
						<Appearance>
							<Material USE="MA_MA_MA_kolorOkna_001" />
						</Appearance>
						<IndexedFaceSet solid="false"
						                texCoordIndex="0 1 2 3 -1 4 5 6 7 -1 8 9 10 11 -1 12 13 14 15 -1 16 17 18 19 -1 20 21 22 23 -1 "
						                coordIndex="0 1 3 2 -1 2 3 7 6 -1 6 7 5 4 -1 4 5 1 0 -1 2 6 4 0 -1 7 3 1 5 -1 "
						                >
							<Coordinate DEF="coords_ME_Shape_IndexedFaceSet_044"
							            point="5.707881 0.265541 1.286351 5.707881 3.734459 1.286351 5.707881 0.265541 -1.286351 5.707881 3.734459 -1.286351 6.292119 0.265541 1.286351 6.292119 3.734459 1.286351 6.292119 0.265541 -1.286351 6.292119 3.734459 -1.286351 "
							            />
							<TextureCoordinate point="0.3750 0.0000 0.6250 0.0000 0.6250 0.2500 0.3750 0.2500 0.3750 0.2500 0.6250 0.2500 0.6250 0.5000 0.3750 0.5000 0.3750 0.5000 0.6250 0.5000 0.6250 0.7500 0.3750 0.7500 0.3750 0.7500 0.6250 0.7500 0.6250 1.0000 0.3750 1.0000 0.1250 0.5000 0.3750 0.5000 0.3750 0.7500 0.1250 0.7500 0.6250 0.5000 0.8750 0.5000 0.8750 0.7500 0.6250 0.7500 " />
						</IndexedFaceSet>
					</Shape>
				</Group>
			</Transform>
		</Transform>
		<Transform DEF="Shape_IndexedFaceSet_041_TRANSFORM"
		           translation="0.000000 0.000000 0.000000"
		           scale="1.000000 1.000000 1.000000"
		           rotation="-0.000000 0.000000 0.000000 0.000000"
		           >
			<Transform DEF="Shape_IndexedFaceSet_041_ifs_TRANSFORM"
			           translation="0.000000 0.000000 0.000000"
			           scale="1.000000 1.000000 1.000000"
			           rotation="0.000000 1.000000 0.000000 0.000000"
			           >
				<Group DEF="group_ME_Shape_IndexedFaceSet_041">
					<Shape>
						<Appearance>
							<Material USE="MA_MA_MA_kolorOkna_001" />
						</Appearance>
						<IndexedFaceSet solid="false"
						                texCoordIndex="0 1 2 3 -1 4 5 6 7 -1 "
						                coordIndex="0 1 3 2 -1 2 6 4 0 -1 "
						                >
							<Coordinate DEF="coords_ME_Shape_IndexedFaceSet_041"
							            point="13.726705 -5.349655 1.332670 13.726705 -0.650345 1.332670 13.726705 -5.349655 -1.332670 13.726705 -0.650345 -1.332670 14.273295 -5.349655 1.332670 14.273295 -0.650345 1.332670 14.273295 -5.349655 -1.332670 14.273295 -0.650345 -1.332670 "
							            />
							<TextureCoordinate point="0.3750 0.0000 0.6250 0.0000 0.6250 0.2500 0.3750 0.2500 0.1250 0.5000 0.3750 0.5000 0.3750 0.7500 0.1250 0.7500 " />
						</IndexedFaceSet>
					</Shape>
				</Group>
			</Transform>
		</Transform>
	</Scene>
</X3D>